<svg width="500" height="294" viewBox="0 0 500 294" fill="none" xmlns="http://www.w3.org/2000/svg">
<g opacity="0.15">
<path d="M46.1 65C45.8138 65.0001 45.5304 64.9437 45.2661 64.8338C45.0018 64.724 44.7618 64.563 44.56 64.36L20.06 40.06C19.391 39.4875 18.769 38.8621 18.2 38.19C16.6309 36.3792 15.4512 34.2649 14.7345 31.9786C14.0177 29.6922 13.7792 27.2829 14.0338 24.9004C14.2884 22.5179 15.0306 20.2133 16.2143 18.13C17.398 16.0468 18.9978 14.2295 20.9141 12.7912C22.8305 11.3529 25.0223 10.3244 27.3533 9.76977C29.6843 9.21514 32.1045 9.14621 34.4632 9.56727C36.822 9.98834 39.0689 10.8904 41.064 12.2173C43.0591 13.5442 44.7597 15.2675 46.06 17.28C47.3666 15.2558 49.0777 13.5237 51.0859 12.1926C53.094 10.8614 55.3558 9.96009 57.7291 9.54513C60.1024 9.13017 62.5358 9.21058 64.8765 9.78132C67.2172 10.3521 69.4145 11.4008 71.3304 12.8616C73.2463 14.3223 74.8394 16.1636 76.0094 18.2697C77.1795 20.3758 77.9013 22.7011 78.1295 25.0995C78.3577 27.498 78.0873 29.9177 77.3353 32.2066C76.5834 34.4955 75.3661 36.6041 73.76 38.4L73.04 39.12L47.64 64.4C47.2266 64.7962 46.6726 65.0121 46.1 65ZM31.43 12.15C28.4355 12.1694 25.5186 13.1041 23.0705 14.8288C20.6224 16.5534 18.7603 18.9855 17.7341 21.7988C16.7078 24.612 16.5665 27.6718 17.329 30.5677C18.0915 33.4636 19.7214 36.057 22 38L46.1 62L71.1 37.2C72.6124 35.6724 73.7787 33.8377 74.52 31.82C75.7901 28.2591 75.6354 24.3451 74.0882 20.8956C72.541 17.446 69.721 14.7275 66.217 13.3079C62.713 11.8882 58.796 11.8771 55.2841 13.2769C51.7721 14.6768 48.9367 17.3792 47.37 20.82L46.09 23.64L44.81 20.82C43.6521 18.2395 41.7733 16.0484 39.3996 14.5103C37.0259 12.9722 34.2585 12.1526 31.43 12.15Z" fill="#0066FF"/>
<path d="M462.66 174.47C462.374 174.472 462.091 174.417 461.827 174.309C461.563 174.201 461.322 174.042 461.12 173.84L436.62 149.5C435.95 148.929 435.325 148.307 434.75 147.64C433.336 145.991 432.238 144.096 431.51 142.05C430.848 140.188 430.509 138.226 430.51 136.25C430.507 132.484 431.721 128.818 433.972 125.798C436.223 122.779 439.39 120.568 443.001 119.496C446.611 118.424 450.471 118.549 454.005 119.851C457.539 121.152 460.558 123.562 462.61 126.72C464.662 123.562 467.681 121.152 471.215 119.851C474.749 118.549 478.609 118.424 482.219 119.496C485.83 120.568 488.997 122.779 491.248 125.798C493.499 128.818 494.713 132.484 494.71 136.25C494.725 138.27 494.386 140.277 493.71 142.18C492.95 144.261 491.807 146.181 490.34 147.84L489.62 148.56L464.2 173.84C463.998 174.042 463.757 174.201 463.493 174.309C463.229 174.417 462.946 174.472 462.66 174.47ZM448 121.6C445.193 121.592 442.442 122.391 440.077 123.903C437.712 125.414 435.831 127.575 434.66 130.126C433.489 132.677 433.076 135.511 433.472 138.291C433.867 141.07 435.054 143.677 436.89 145.8C437.396 146.383 437.944 146.928 438.53 147.43L462.67 171.43L487.67 146.62C489.182 145.092 490.349 143.258 491.09 141.24C492.36 137.679 492.205 133.765 490.658 130.316C489.111 126.866 486.291 124.148 482.787 122.728C479.283 121.308 475.366 121.297 471.854 122.697C468.342 124.097 465.507 126.799 463.94 130.24L462.62 133L461.34 130.18C460.171 127.623 458.292 125.456 455.927 123.935C453.563 122.414 450.811 121.604 448 121.6Z" fill="#0066FF"/>
<path d="M161.5 112.37L159.31 110.15C148.26 99 132.54 102.62 132.38 102.65L130.52 103.1L133.07 65.53L133.92 65.21C150.7 58.96 163.65 71.64 163.78 71.77L164.23 72.22L161.5 112.37ZM138.77 99.21C146.16 99.0954 153.356 101.572 159.11 106.21L161.34 73.38C159.08 71.38 148.9 63.18 135.75 67.6L133.58 99.6C135.298 99.3463 137.033 99.2159 138.77 99.21Z" fill="#0066FF"/>
<path d="M158.86 112.19L161.59 72L162.1 71.62C162.24 71.5 176.78 60.68 192.57 69.16L193.37 69.59L190.81 107.16L189.03 106.46C188.88 106.46 173.79 100.69 161.33 110.25L158.86 112.19ZM164.31 73.53L162.07 106.36C172.66 99.8 183.94 102.04 188.26 103.29L190.44 71.29C178 65.11 166.81 71.83 164.31 73.53Z" fill="#0066FF"/>
<path d="M248.35 83.13C243.94 83.13 239.628 81.8221 235.961 79.3718C232.294 76.9214 229.435 73.4386 227.748 69.3638C226.06 65.2891 225.618 60.8053 226.479 56.4795C227.339 52.1537 229.463 48.1802 232.582 45.0615C235.7 41.9428 239.674 39.8189 244 38.9585C248.325 38.098 252.809 38.5397 256.884 40.2275C260.959 41.9153 264.441 44.7736 266.892 48.4408C269.342 52.108 270.65 56.4195 270.65 60.83C270.645 66.7427 268.294 72.4117 264.113 76.5926C259.932 80.7736 254.263 83.1247 248.35 83.13ZM248.35 41.34C244.495 41.34 240.727 42.4831 237.522 44.6247C234.317 46.7663 231.819 49.8102 230.344 53.3715C228.868 56.9328 228.483 60.8516 229.235 64.6323C229.987 68.413 231.843 71.8858 234.569 74.6115C237.294 77.3372 240.767 79.1935 244.548 79.9455C248.328 80.6975 252.247 80.3116 255.809 78.8364C259.37 77.3613 262.414 74.8632 264.555 71.6581C266.697 68.453 267.84 64.6848 267.84 60.83C267.835 55.6626 265.78 50.7083 262.126 47.0543C258.472 43.4004 253.518 41.3453 248.35 41.34Z" fill="#0066FF"/>
<path d="M240.33 59.21C241.181 59.21 241.87 58.5205 241.87 57.67C241.87 56.8195 241.181 56.13 240.33 56.13C239.48 56.13 238.79 56.8195 238.79 57.67C238.79 58.5205 239.48 59.21 240.33 59.21Z" fill="#0066FF"/>
<path d="M238.94 56.13H238.79V59.2H238.94V56.13Z" fill="#0066FF"/>
<path d="M239.09 56.13H238.94V59.2H239.09V56.13Z" fill="#0066FF"/>
<path d="M239.24 56.13H239.09V59.2H239.24V56.13Z" fill="#0066FF"/>
<path d="M239.38 56.13H239.23V59.2H239.38V56.13Z" fill="#0066FF"/>
<path d="M239.53 56.13H239.38V59.2H239.53V56.13Z" fill="#0066FF"/>
<path d="M239.68 56.13H239.53V59.2H239.68V56.13Z" fill="#0066FF"/>
<path d="M239.82 56.13H239.67V59.2H239.82V56.13Z" fill="#0066FF"/>
<path d="M239.97 56.13H239.82V59.2H239.97V56.13Z" fill="#0066FF"/>
<path d="M240.12 56.13H239.97V59.2H240.12V56.13Z" fill="#0066FF"/>
<path d="M240.26 56.13H240.11V59.2H240.26V56.13Z" fill="#0066FF"/>
<path d="M240.41 56.13H240.26V59.2H240.41V56.13Z" fill="#0066FF"/>
<path d="M240.55 56.13H240.4V59.2H240.55V56.13Z" fill="#0066FF"/>
<path d="M240.7 56.13H240.55V59.2H240.7V56.13Z" fill="#0066FF"/>
<path d="M240.85 56.13H240.7V59.2H240.85V56.13Z" fill="#0066FF"/>
<path d="M240.99 56.13H240.84V59.2H240.99V56.13Z" fill="#0066FF"/>
<path d="M241.14 56.13H240.99V59.2H241.14V56.13Z" fill="#0066FF"/>
<path d="M241.29 56.13H241.14V59.2H241.29V56.13Z" fill="#0066FF"/>
<path d="M241.43 56.13H241.28V59.2H241.43V56.13Z" fill="#0066FF"/>
<path d="M241.58 56.13H241.43V59.2H241.58V56.13Z" fill="#0066FF"/>
<path d="M241.73 56.13H241.58V59.2H241.73V56.13Z" fill="#0066FF"/>
<path d="M241.87 56.13H241.72V59.2H241.87V56.13Z" fill="#0066FF"/>
<path d="M256.37 59.21C257.22 59.21 257.91 58.5205 257.91 57.67C257.91 56.8195 257.22 56.13 256.37 56.13C255.519 56.13 254.83 56.8195 254.83 57.67C254.83 58.5205 255.519 59.21 256.37 59.21Z" fill="#0066FF"/>
<path d="M254.98 56.13H254.83V59.2H254.98V56.13Z" fill="#0066FF"/>
<path d="M255.13 56.13H254.98V59.2H255.13V56.13Z" fill="#0066FF"/>
<path d="M255.28 56.13H255.13V59.2H255.28V56.13Z" fill="#0066FF"/>
<path d="M255.42 56.13H255.27V59.2H255.42V56.13Z" fill="#0066FF"/>
<path d="M255.57 56.13H255.42V59.2H255.57V56.13Z" fill="#0066FF"/>
<path d="M255.71 56.13H255.56V59.2H255.71V56.13Z" fill="#0066FF"/>
<path d="M255.86 56.13H255.71V59.2H255.86V56.13Z" fill="#0066FF"/>
<path d="M256.01 56.13H255.86V59.2H256.01V56.13Z" fill="#0066FF"/>
<path d="M256.15 56.13H256V59.2H256.15V56.13Z" fill="#0066FF"/>
<path d="M256.3 56.13H256.15V59.2H256.3V56.13Z" fill="#0066FF"/>
<path d="M256.45 56.13H256.3V59.2H256.45V56.13Z" fill="#0066FF"/>
<path d="M256.59 56.13H256.44V59.2H256.59V56.13Z" fill="#0066FF"/>
<path d="M256.74 56.13H256.59V59.2H256.74V56.13Z" fill="#0066FF"/>
<path d="M256.89 56.13H256.74V59.2H256.89V56.13Z" fill="#0066FF"/>
<path d="M257.03 56.13H256.88V59.2H257.03V56.13Z" fill="#0066FF"/>
<path d="M257.18 56.13H257.03V59.2H257.18V56.13Z" fill="#0066FF"/>
<path d="M257.32 56.13H257.17V59.2H257.32V56.13Z" fill="#0066FF"/>
<path d="M257.47 56.13H257.32V59.2H257.47V56.13Z" fill="#0066FF"/>
<path d="M257.62 56.13H257.47V59.2H257.62V56.13Z" fill="#0066FF"/>
<path d="M257.76 56.13H257.61V59.2H257.76V56.13Z" fill="#0066FF"/>
<path d="M257.91 56.13H257.76V59.2H257.91V56.13Z" fill="#0066FF"/>
<path d="M248 71.76C245.28 71.7207 242.678 70.6481 240.72 68.76L242.79 66.85L241.79 67.85L242.79 66.85C242.97 67.04 247.38 71.59 253.84 66.68L255.54 68.93C253.412 70.6866 250.758 71.6826 248 71.76Z" fill="#0066FF"/>
<path d="M67.6425 176L67.605 185.78L70.415 185.791L70.4525 176.011L67.6425 176Z" fill="#0066FF"/>
<path d="M69.2399 177.42C68.7655 177.42 68.2957 177.326 67.8577 177.144C67.4196 176.962 67.0218 176.695 66.6873 176.359C66.3527 176.022 66.088 175.623 65.9082 175.184C65.7285 174.745 65.6373 174.274 65.6399 173.8C65.6478 172.847 66.0313 171.935 66.7072 171.263C67.3831 170.591 68.2968 170.213 69.2499 170.21C69.7393 170.184 70.2289 170.258 70.6887 170.428C71.1485 170.597 71.569 170.859 71.9245 171.196C72.28 171.533 72.5631 171.939 72.7566 172.39C72.9501 172.84 73.0499 173.325 73.0499 173.815C73.0499 174.305 72.9501 174.79 72.7566 175.24C72.5631 175.691 72.28 176.097 71.9245 176.434C71.569 176.771 71.1485 177.033 70.6887 177.202C70.2289 177.372 69.7393 177.446 69.2499 177.42H69.2399ZM68.44 173.81C68.4386 173.915 68.4581 174.018 68.4972 174.115C68.5363 174.212 68.5943 174.301 68.6678 174.375C68.7413 174.45 68.8288 174.509 68.9253 174.549C69.0218 174.589 69.1254 174.61 69.23 174.61C69.3345 174.611 69.4383 174.592 69.5353 174.553C69.6323 174.514 69.7206 174.456 69.795 174.382C69.8695 174.309 69.9285 174.221 69.9689 174.125C70.0092 174.028 70.03 173.925 70.0299 173.82C70.0291 173.608 69.9467 173.404 69.8 173.25C69.7263 173.177 69.6389 173.119 69.5429 173.079C69.4468 173.04 69.3438 173.02 69.2399 173.02C69.0304 173.02 68.8295 173.103 68.6813 173.251C68.5332 173.4 68.4499 173.6 68.4499 173.81H68.44Z" fill="#0066FF"/>
<path d="M108.27 216.44L105.55 215.73C105.949 214.195 106.154 212.616 106.16 211.03C106.16 201.33 98.86 193.4 89.8 193.37H89.74C87.376 193.391 85.046 193.935 82.9174 194.964C80.7889 195.993 78.9149 197.48 77.43 199.32L75.26 197.53C77.0037 195.363 79.2075 193.61 81.7118 192.4C84.2162 191.189 86.9584 190.55 89.74 190.53H89.81C100.42 190.53 109.02 199.76 108.97 211.01C108.973 212.843 108.737 214.668 108.27 216.44Z" fill="#0066FF"/>
<path d="M111.46 223.82L74.35 223.68C71.0898 223.554 67.9869 222.246 65.62 220C63.44 217.74 62.39 214.67 62.47 210.87L62 192.06C62.11 189.28 63.88 184.19 69.86 184.19C75.86 184.19 77.61 189.34 77.7 192.04V198.43V207.79C80.36 208.84 88.54 211.87 92.94 211.47C97.34 211.07 113.08 215.32 114.24 219.95C114.47 220.85 114.44 222.54 111.71 223.7L111.46 223.82ZM69.9 187C65.23 187 64.9 191.57 64.85 192.09L65.28 210.84C65.21 213.92 66.01 216.32 67.64 218.01C69.4716 219.734 71.8578 220.748 74.37 220.87L110.87 221C111.44 220.73 111.55 220.53 111.55 220.53C111.13 218.63 98.28 213.84 93.21 214.27C87.21 214.81 76.21 210.27 75.76 210.04L74.9 209.68L74.96 192.08C74.96 191.61 74.63 187.02 69.96 187H69.9Z" fill="#0066FF"/>
<path d="M168.89 287.55C168.604 287.552 168.321 287.497 168.057 287.389C167.793 287.281 167.552 287.122 167.35 286.92L142.85 262.58C142.18 262.009 141.555 261.387 140.98 260.72C139.566 259.071 138.468 257.176 137.74 255.13C137.078 253.268 136.739 251.306 136.74 249.33C136.737 245.564 137.951 241.898 140.202 238.878C142.453 235.859 145.62 233.648 149.231 232.576C152.841 231.504 156.701 231.629 160.235 232.931C163.769 234.232 166.788 236.642 168.84 239.8C170.886 236.622 173.907 234.192 177.451 232.877C180.995 231.562 184.87 231.431 188.494 232.505C192.118 233.579 195.296 235.8 197.551 238.833C199.806 241.867 201.016 245.55 201 249.33C201.015 251.35 200.676 253.357 200 255.26C199.24 257.341 198.097 259.261 196.63 260.92L195.91 261.64L170.5 286.89C170.292 287.106 170.042 287.276 169.764 287.389C169.487 287.503 169.189 287.558 168.89 287.55ZM154.22 234.67C151.224 234.684 148.305 235.613 145.853 237.335C143.401 239.056 141.534 241.486 140.503 244.298C139.473 247.111 139.327 250.172 140.086 253.07C140.845 255.968 142.473 258.564 144.75 260.51L168.89 284.51L193.89 259.7C195.402 258.172 196.569 256.338 197.31 254.32C198.58 250.759 198.425 246.845 196.878 243.396C195.331 239.946 192.511 237.228 189.007 235.808C185.503 234.388 181.586 234.377 178.074 235.777C174.562 237.177 171.727 239.879 170.16 243.32L168.88 246.14L167.6 243.32C166.437 240.745 164.556 238.559 162.184 237.025C159.811 235.491 157.046 234.673 154.22 234.67Z" fill="#0066FF"/>
<path d="M423.42 246.79L414.52 210.2L415.24 209.64C429.35 198.64 445.52 206.8 445.68 206.89L446.25 207.18L455.75 246.28L453 244.83C439.1 237.52 425.2 245.72 425.06 245.83L423.42 246.79ZM417.69 211.31L425.27 242.51C429.27 240.51 440.05 236.41 451.6 241.09L443.83 209.09C441.06 207.86 428.91 203.14 417.69 211.31Z" fill="#0066FF"/>
<path d="M453.18 246.91L443.67 207.81L444.04 207.28C444.15 207.14 454.77 192.43 472.35 195.76L473.25 195.93L482.14 232.52L480.23 232.39C480.06 232.39 463.95 231.49 454.96 244.39L453.18 246.91ZM446.72 208.41L454.49 240.41C462.59 230.96 474.04 229.7 478.49 229.59L471 198.37C457.23 196.25 448.6 206 446.72 208.41Z" fill="#0066FF"/>
<path d="M452.78 54.7L395 48.2L399.59 7.35999L457.4 13.86L452.78 54.7ZM398.08 45.7L450.3 51.57L454.3 16.32L402 10.47L398.08 45.7Z" fill="#0066FF"/>
<path d="M424.69 43.51L400.36 9.85999L402.64 8.20999L425.15 39.35L454.37 13.7L456.22 15.81L424.69 43.51Z" fill="#0066FF"/>
<path d="M438.478 29.8208L436.125 31.3561L450.244 52.9979L452.597 51.4625L438.478 29.8208Z" fill="#0066FF"/>
<path d="M414.279 27.0501L395.553 45.001L397.498 47.0295L416.223 29.0786L414.279 27.0501Z" fill="#0066FF"/>
<path d="M266.05 226.25L208.24 219.75L212.83 178.92L270.64 185.41L266.05 226.25ZM211.35 217.25L263.57 223.12L267.57 187.87L215.31 182L211.35 217.25Z" fill="#0066FF"/>
<path d="M237.95 215.06L213.63 181.41L215.91 179.76L238.42 210.91L267.63 185.25L269.49 187.37L237.95 215.06Z" fill="#0066FF"/>
<path d="M251.721 201.367L249.367 202.902L263.486 224.544L265.84 223.009L251.721 201.367Z" fill="#0066FF"/>
<path d="M227.568 198.599L208.842 216.55L210.787 218.579L229.512 200.628L227.568 198.599Z" fill="#0066FF"/>
<path d="M358.1 103.31L356.94 101.62C356.28 100.62 340.82 78.02 340.82 68.93C340.82 64.3471 342.641 59.9518 345.881 56.7112C349.122 53.4706 353.517 51.65 358.1 51.65C362.683 51.65 367.078 53.4706 370.319 56.7112C373.56 59.9518 375.38 64.3471 375.38 68.93C375.38 78.02 359.91 100.66 359.25 101.62L358.1 103.31ZM358.1 54.46C354.263 54.4626 350.584 55.988 347.871 58.7011C345.158 61.4142 343.633 65.0931 343.63 68.93C343.63 75.21 353.19 90.93 358.1 98.31C363.01 90.91 372.56 75.21 372.56 68.93C372.557 65.0949 371.033 61.4174 368.323 58.7046C365.612 55.9918 361.935 54.4653 358.1 54.46Z" fill="#0066FF"/>
<path d="M358.1 77.09C356.347 77.0841 354.634 76.5586 353.179 75.5799C351.724 74.6012 350.592 73.2132 349.926 71.5913C349.259 69.9695 349.088 68.1864 349.435 66.4675C349.781 64.7486 350.629 63.171 351.872 61.9339C353.115 60.6968 354.696 59.8558 356.417 59.5171C358.137 59.1784 359.919 59.3572 361.538 60.031C363.157 60.7047 364.54 61.8432 365.512 63.3025C366.484 64.7618 367.002 66.4765 367 68.23C366.999 69.3965 366.767 70.5513 366.319 71.6283C365.871 72.7052 365.215 73.6832 364.388 74.5062C363.561 75.3292 362.58 75.981 361.501 76.4244C360.422 76.8678 359.267 77.0939 358.1 77.09ZM358.1 62.17C356.899 62.1581 355.721 62.5034 354.717 63.162C353.713 63.8206 352.927 64.7628 352.459 65.8691C351.991 66.9753 351.862 68.1956 352.089 69.375C352.316 70.5545 352.889 71.6399 353.734 72.4934C354.579 73.3469 355.658 73.9301 356.836 74.1688C358.013 74.4075 359.234 74.2911 360.345 73.8342C361.456 73.3774 362.406 72.6007 363.074 71.6029C363.743 70.6051 364.1 69.4311 364.1 68.23C364.097 66.6339 363.466 65.1031 362.343 63.9689C361.22 62.8347 359.696 62.1884 358.1 62.17Z" fill="#0066FF"/>
<path d="M181.51 167.77C179.006 167.772 176.557 167.031 174.474 165.641C172.39 164.251 170.766 162.275 169.807 159.962C168.847 157.649 168.595 155.103 169.082 152.646C169.569 150.19 170.774 147.933 172.544 146.162C174.315 144.39 176.57 143.183 179.026 142.694C181.483 142.205 184.029 142.455 186.342 143.413C188.656 144.371 190.634 145.993 192.026 148.075C193.417 150.158 194.16 152.606 194.16 155.11C194.155 158.464 192.821 161.68 190.45 164.053C188.079 166.425 184.864 167.762 181.51 167.77ZM181.51 145.27C179.561 145.268 177.655 145.844 176.034 146.926C174.412 148.007 173.148 149.546 172.402 151.346C171.655 153.146 171.459 155.128 171.839 157.039C172.218 158.951 173.157 160.707 174.535 162.085C175.913 163.463 177.669 164.401 179.581 164.781C181.492 165.161 183.474 164.965 185.274 164.218C187.074 163.472 188.613 162.207 189.694 160.586C190.776 158.965 191.352 157.059 191.35 155.11C191.345 152.502 190.306 150.002 188.462 148.158C186.618 146.314 184.118 145.275 181.51 145.27Z" fill="#0066FF"/>
<path d="M123 182.57C122.875 182.594 122.746 182.594 122.62 182.57C122.416 182.539 122.227 182.445 122.078 182.302C121.93 182.158 121.829 181.973 121.79 181.77L116.28 155.41L94.47 139.16C94.2996 139.037 94.1722 138.864 94.1058 138.665C94.0393 138.466 94.0373 138.25 94.1 138.05C94.151 137.849 94.263 137.669 94.4207 137.535C94.5783 137.401 94.7738 137.318 94.98 137.3L154.06 131.08C154.259 131.039 154.465 131.06 154.652 131.14C154.839 131.219 154.997 131.354 155.105 131.525C155.214 131.696 155.267 131.897 155.259 132.1C155.251 132.302 155.182 132.498 155.06 132.66L123.66 182.11C123.588 182.228 123.492 182.33 123.378 182.409C123.265 182.488 123.136 182.543 123 182.57ZM97.83 139.08L117.83 153.99C118.034 154.14 118.173 154.361 118.22 154.61L123.28 178.85L152.17 133.36L97.83 139.08Z" fill="#0066FF"/>
<path d="M117.31 155.72C117.059 155.819 116.78 155.815 116.532 155.708C116.284 155.601 116.089 155.401 115.99 155.15C115.891 154.899 115.895 154.619 116.002 154.372C116.109 154.124 116.309 153.929 116.56 153.83L135.92 141.43C136.152 141.281 136.434 141.231 136.703 141.29C136.972 141.349 137.206 141.513 137.355 141.745C137.504 141.977 137.554 142.259 137.495 142.528C137.436 142.797 137.272 143.031 137.04 143.18L117.67 155.57C117.564 155.648 117.44 155.7 117.31 155.72Z" fill="#0066FF"/>
<path d="M58.17 133.66C55.8866 133.661 53.6524 132.997 51.74 131.75L22.11 112.58C19.5532 110.832 17.7802 108.155 17.1687 105.118C16.5572 102.082 17.1557 98.9272 18.8365 96.3257C20.5173 93.7243 23.1476 91.8821 26.1669 91.1918C29.1861 90.5014 32.3556 91.0175 35 92.63L64.64 111.8C66.617 113.076 68.1702 114.911 69.1021 117.072C70.0341 119.233 70.3028 121.622 69.8741 123.935C69.4454 126.249 68.3387 128.383 66.6945 130.067C65.0504 131.75 62.943 132.907 60.64 133.39C59.8282 133.565 59.0004 133.656 58.17 133.66ZM53.26 129.39C55.2796 130.698 57.7359 131.149 60.0885 130.646C61.2534 130.396 62.3578 129.92 63.3387 129.244C64.3195 128.568 65.1575 127.705 65.805 126.705C66.4524 125.705 66.8965 124.587 67.1119 123.416C67.3274 122.244 67.3099 121.041 67.0606 119.876C66.8113 118.711 66.335 117.607 65.6588 116.626C64.9827 115.645 64.12 114.807 63.12 114.16L33.49 95C31.4717 93.6938 29.0171 93.2429 26.6664 93.7464C24.3156 94.2499 22.2611 95.6667 20.955 97.685C19.6488 99.7033 19.1978 102.158 19.7014 104.509C20.2049 106.859 21.6217 108.914 23.64 110.22L53.26 129.39Z" fill="#0066FF"/>
<path d="M333.89 234.4C331.607 234.398 329.374 233.735 327.46 232.49L297.84 213.33C295.188 211.618 293.324 208.923 292.66 205.837C291.995 202.751 292.583 199.527 294.295 196.875C296.007 194.223 298.702 192.359 301.788 191.695C304.874 191.03 308.098 191.618 310.75 193.33L340.37 212.49C342.527 213.883 344.175 215.937 345.066 218.345C345.958 220.753 346.045 223.385 345.316 225.846C344.586 228.308 343.078 230.467 341.018 232C338.959 233.533 336.458 234.358 333.89 234.35V234.4ZM328.99 230.13C329.989 230.777 331.106 231.22 332.277 231.435C333.448 231.651 334.65 231.633 335.814 231.384C336.978 231.134 338.081 230.658 339.061 229.982C340.041 229.307 340.878 228.444 341.525 227.445C342.172 226.446 342.615 225.329 342.83 224.158C343.046 222.987 343.028 221.785 342.779 220.621C342.529 219.457 342.053 218.354 341.377 217.374C340.702 216.394 339.839 215.557 338.84 214.91L309.22 195.74C308.218 195.093 307.098 194.649 305.925 194.434C304.751 194.219 303.547 194.238 302.381 194.489C301.215 194.739 300.109 195.217 299.127 195.895C298.146 196.573 297.307 197.438 296.66 198.44C296.013 199.442 295.569 200.562 295.354 201.735C295.139 202.909 295.158 204.113 295.409 205.279C295.659 206.445 296.137 207.551 296.815 208.533C297.493 209.514 298.358 210.353 299.36 211L328.99 230.13Z" fill="#0066FF"/>
<path d="M15.45 195C12.9464 195 10.499 194.257 8.41789 192.865C6.33675 191.473 4.7154 189.495 3.75914 187.182C2.80288 184.868 2.55471 182.322 3.04606 179.867C3.53742 177.412 4.74619 175.158 6.51933 173.391C8.29247 171.623 10.5502 170.422 13.0067 169.938C15.4632 169.455 18.0079 169.711 20.3187 170.674C22.6295 171.638 24.6024 173.266 25.9876 175.351C27.3727 177.437 28.1079 179.886 28.1 182.39C28.0868 185.737 26.7485 188.943 24.3779 191.306C22.0073 193.669 18.7973 194.997 15.45 195ZM15.45 172.51C13.5038 172.51 11.6014 173.087 9.98318 174.168C8.365 175.25 7.10378 176.786 6.35902 178.584C5.61425 180.382 5.41939 182.361 5.79906 184.27C6.17874 186.178 7.11591 187.932 8.49206 189.308C9.86821 190.684 11.6215 191.621 13.5303 192.001C15.4391 192.381 17.4176 192.186 19.2156 191.441C21.0136 190.696 22.5504 189.435 23.6317 187.817C24.7129 186.199 25.29 184.296 25.29 182.35C25.2768 179.748 24.2346 177.257 22.3909 175.421C20.5473 173.585 18.052 172.553 15.45 172.55V172.51Z" fill="#0066FF"/>
<path d="M256.73 142.14C255.9 142.138 255.072 142.051 254.26 141.88L219.73 134.62C218.19 134.313 216.725 133.704 215.422 132.827C214.119 131.95 213.002 130.824 212.137 129.513C211.272 128.202 210.675 126.733 210.382 125.19C210.088 123.647 210.103 122.061 210.427 120.524C210.75 118.987 211.375 117.529 212.265 116.235C213.155 114.941 214.293 113.837 215.613 112.985C216.933 112.134 218.409 111.553 219.955 111.276C221.501 110.998 223.087 111.031 224.62 111.37L259.15 118.63C262.028 119.23 264.581 120.875 266.316 123.248C268.051 125.621 268.844 128.552 268.543 131.476C268.242 134.4 266.868 137.109 264.686 139.079C262.504 141.048 259.669 142.139 256.73 142.14ZM222.16 113.92C219.866 113.847 217.63 114.646 215.903 116.156C214.175 117.666 213.084 119.775 212.849 122.058C212.614 124.341 213.254 126.628 214.638 128.458C216.023 130.288 218.05 131.525 220.31 131.92L254.84 139.18C257.177 139.632 259.598 139.148 261.581 137.831C263.564 136.514 264.95 134.47 265.439 132.14C265.929 129.811 265.483 127.382 264.198 125.379C262.913 123.375 260.891 121.957 258.57 121.43L224 114.12C223.395 113.992 222.779 113.925 222.16 113.92Z" fill="#0066FF"/>
<path d="M114.79 54.46C112.288 54.46 109.842 53.7181 107.762 52.3281C105.682 50.9381 104.06 48.9624 103.103 46.651C102.145 44.3395 101.895 41.796 102.383 39.3421C102.871 36.8883 104.076 34.6342 105.845 32.8651C107.614 31.096 109.868 29.8912 112.322 29.4031C114.776 28.915 117.319 29.1655 119.631 30.1229C121.942 31.0804 123.918 32.7018 125.308 34.782C126.698 36.8623 127.44 39.3081 127.44 41.81C127.435 45.1634 126.1 48.3779 123.729 50.7491C121.358 53.1203 118.143 54.4547 114.79 54.46ZM114.79 31.97C112.844 31.97 110.941 32.5471 109.323 33.6283C107.705 34.7096 106.444 36.2464 105.699 38.0444C104.954 39.8424 104.759 41.8209 105.139 43.7297C105.519 45.6385 106.456 47.3918 107.832 48.7679C109.208 50.1441 110.962 51.0813 112.87 51.4609C114.779 51.8406 116.758 51.6458 118.556 50.901C120.354 50.1562 121.89 48.895 122.972 47.2768C124.053 45.6586 124.63 43.7562 124.63 41.81C124.619 39.2063 123.578 36.7127 121.734 34.8744C119.891 33.0361 117.394 32.0026 114.79 32V31.97Z" fill="#0066FF"/>
<path d="M92.3 101.32C89.8002 101.31 87.3594 100.56 85.2857 99.1638C83.212 97.7678 81.5984 95.7887 80.6486 93.4764C79.6988 91.1641 79.4554 88.6221 79.9492 86.1716C80.4429 83.721 81.6516 81.4717 83.4227 79.7076C85.1938 77.9434 87.4479 76.7436 89.9004 76.2595C92.3529 75.7755 94.8938 76.0289 97.2024 76.9878C99.511 77.9467 101.484 79.5681 102.871 81.6473C104.259 83.7264 105 86.1702 105 88.67C104.999 90.3351 104.669 91.9835 104.03 93.5209C103.39 95.0584 102.454 96.4546 101.274 97.6297C100.095 98.8047 98.6947 99.7355 97.1547 100.369C95.6148 101.002 93.965 101.325 92.3 101.32ZM92.3 78.83C90.3538 78.83 88.4513 79.4071 86.8331 80.4883C85.215 81.5696 83.9537 83.1064 83.209 84.9044C82.4642 86.7024 82.2693 88.6809 82.649 90.5897C83.0287 92.4985 83.9659 94.2518 85.342 95.6279C86.7182 97.0041 88.4715 97.9412 90.3803 98.3209C92.289 98.7006 94.2675 98.5057 96.0656 97.761C97.8636 97.0162 99.4004 95.755 100.482 94.1368C101.563 92.5186 102.14 90.6162 102.14 88.67C102.137 86.0611 101.1 83.5598 99.255 81.715C97.4102 79.8702 94.9089 78.8326 92.3 78.83Z" fill="#0066FF"/>
<path d="M381 262.52C378.498 262.52 376.052 261.778 373.972 260.388C371.892 258.998 370.27 257.022 369.313 254.711C368.355 252.399 368.105 249.856 368.593 247.402C369.081 244.948 370.286 242.694 372.055 240.925C373.824 239.156 376.078 237.951 378.532 237.463C380.986 236.975 383.529 237.225 385.841 238.183C388.152 239.14 390.128 240.762 391.518 242.842C392.908 244.922 393.65 247.368 393.65 249.87C393.647 253.224 392.314 256.44 389.942 258.812C387.57 261.184 384.354 262.517 381 262.52ZM381 240C379.054 240 377.151 240.577 375.533 241.658C373.915 242.74 372.654 244.276 371.909 246.074C371.164 247.872 370.969 249.851 371.349 251.76C371.729 253.668 372.666 255.422 374.042 256.798C375.418 258.174 377.172 259.111 379.08 259.491C380.989 259.871 382.968 259.676 384.766 258.931C386.564 258.186 388.1 256.925 389.182 255.307C390.263 253.689 390.84 251.786 390.84 249.84C390.837 247.231 389.8 244.73 387.955 242.885C386.11 241.04 383.609 240.003 381 240Z" fill="#0066FF"/>
<path d="M284.85 271.47C284.02 271.471 283.193 271.387 282.38 271.22L247.85 264C244.766 263.352 242.065 261.504 240.343 258.865C238.62 256.225 238.017 253.009 238.665 249.925C239.313 246.841 241.161 244.14 243.8 242.417C246.44 240.695 249.656 240.092 252.74 240.74L287.27 248C290.148 248.6 292.701 250.245 294.436 252.618C296.171 254.991 296.964 257.922 296.663 260.846C296.362 263.77 294.988 266.479 292.806 268.449C290.624 270.418 287.789 271.509 284.85 271.51V271.47ZM250.27 243.26C248.034 243.273 245.882 244.112 244.226 245.615C242.571 247.118 241.529 249.18 241.301 251.404C241.073 253.629 241.674 255.859 242.99 257.667C244.306 259.475 246.243 260.733 248.43 261.2L283 268.46C285.353 268.956 287.806 268.497 289.82 267.184C291.834 265.872 293.244 263.812 293.74 261.46C294.236 259.108 293.777 256.654 292.464 254.64C291.152 252.626 289.093 251.216 286.74 250.72L252.21 243.46C251.573 243.321 250.922 243.253 250.27 243.26Z" fill="#0066FF"/>
<path d="M347.81 119.88C347.93 119.923 348.042 119.988 348.14 120.07C348.302 120.201 348.419 120.38 348.474 120.58C348.53 120.781 348.521 120.994 348.45 121.19L339.94 146.73L350.59 171.73C350.669 171.923 350.689 172.135 350.649 172.34C350.608 172.544 350.507 172.732 350.36 172.88C350.213 173.03 350.024 173.129 349.817 173.165C349.611 173.201 349.399 173.171 349.21 173.08L295 148.73C294.811 148.663 294.647 148.54 294.528 148.377C294.41 148.215 294.343 148.021 294.337 147.82C294.33 147.62 294.384 147.422 294.492 147.252C294.6 147.083 294.756 146.95 294.94 146.87L346.94 119.94C347.071 119.865 347.217 119.821 347.368 119.81C347.519 119.8 347.67 119.824 347.81 119.88ZM347.65 170.11L337.89 147.18C337.798 146.945 337.798 146.685 337.89 146.45L345.71 122.95L297.86 147.72L347.65 170.11Z" fill="#0066FF"/>
<path d="M339.19 145.93C339.384 146 339.552 146.126 339.675 146.291C339.798 146.457 339.869 146.654 339.88 146.86C339.891 146.998 339.873 147.137 339.828 147.267C339.783 147.398 339.711 147.518 339.617 147.619C339.523 147.721 339.409 147.802 339.282 147.857C339.155 147.912 339.018 147.94 338.88 147.94L315.88 148.94C315.606 148.952 315.338 148.854 315.135 148.669C314.933 148.483 314.812 148.224 314.8 147.95C314.788 147.675 314.886 147.408 315.071 147.205C315.257 147.002 315.516 146.882 315.79 146.87L338.79 145.87C338.926 145.868 339.061 145.888 339.19 145.93Z" fill="#0066FF"/>
<path d="M416.15 161C415.249 163.099 413.759 164.891 411.86 166.16L382.58 185.83C379.964 187.587 376.756 188.233 373.664 187.625C370.571 187.018 367.847 185.206 366.09 182.59C364.333 179.974 363.687 176.766 364.295 173.674C364.902 170.582 366.714 167.857 369.33 166.1L398.61 146.43C400.561 145.122 402.856 144.422 405.205 144.417C407.554 144.412 409.852 145.103 411.808 146.403C413.765 147.703 415.293 149.553 416.199 151.72C417.105 153.887 417.349 156.274 416.9 158.58C416.734 159.41 416.482 160.221 416.15 161ZM410.29 163.82C411.294 163.163 412.157 162.313 412.83 161.32C413.504 160.326 413.973 159.209 414.211 158.033C414.45 156.857 414.452 155.646 414.219 154.469C413.986 153.292 413.521 152.173 412.852 151.176C412.184 150.18 411.324 149.326 410.323 148.665C409.322 148.003 408.199 147.547 407.021 147.322C405.842 147.097 404.631 147.109 403.456 147.356C402.282 147.602 401.168 148.08 400.18 148.76L370.89 168.44C369.859 169.085 368.969 169.93 368.271 170.926C367.574 171.922 367.084 173.048 366.831 174.237C366.577 175.426 366.565 176.654 366.796 177.848C367.026 179.042 367.494 180.177 368.172 181.186C368.85 182.196 369.724 183.058 370.742 183.723C371.76 184.388 372.901 184.841 374.098 185.056C375.295 185.271 376.522 185.243 377.708 184.974C378.894 184.705 380.013 184.2 381 183.49L410.29 163.82Z" fill="#0066FF"/>
<path d="M174.84 35.68C171.998 35.6734 169.252 34.6491 167.101 32.7926C164.949 30.9362 163.533 28.3703 163.11 25.56C162.646 22.4426 163.438 19.2684 165.314 16.7351C167.189 14.2018 169.993 12.5166 173.11 12.05L208 6.83001C211.116 6.36323 214.29 7.15351 216.824 9.027C219.358 10.9005 221.043 13.7037 221.51 16.82C221.977 19.9363 221.187 23.1104 219.313 25.644C217.44 28.1776 214.636 29.8632 211.52 30.33L176.62 35.55C176.031 35.6377 175.436 35.6811 174.84 35.68ZM209.77 9.51001C209.315 9.50891 208.86 9.54233 208.41 9.61001L173.52 14.83C171.747 15.0961 170.092 15.882 168.765 17.0883C167.438 18.2946 166.498 19.8673 166.065 21.6075C165.631 23.3476 165.723 25.1772 166.33 26.8651C166.936 28.5529 168.029 30.0231 169.47 31.09C170.425 31.8013 171.511 32.316 172.667 32.6044C173.822 32.8928 175.023 32.9491 176.2 32.77L211.1 27.54C213.315 27.1509 215.306 25.9531 216.687 24.179C218.068 22.4048 218.742 20.1809 218.576 17.9385C218.41 15.6961 217.417 13.5952 215.79 12.0434C214.163 10.4916 212.018 9.5994 209.77 9.54001V9.51001Z" fill="#0066FF"/>
<path d="M65 270.46C62.0112 270.44 59.1393 269.296 56.9562 267.254C54.7732 265.213 53.4391 262.424 53.2197 259.443C53.0003 256.462 53.9116 253.508 55.7723 251.169C57.6329 248.83 60.3062 247.277 63.26 246.82L98.16 241.6C99.7031 241.369 101.277 241.444 102.791 241.821C104.305 242.198 105.73 242.869 106.984 243.797C108.239 244.725 109.298 245.89 110.102 247.227C110.906 248.565 111.439 250.047 111.67 251.59C111.901 253.133 111.826 254.706 111.449 256.22C111.072 257.735 110.401 259.159 109.473 260.414C108.545 261.669 107.38 262.728 106.043 263.532C104.705 264.336 103.223 264.869 101.68 265.1L66.78 270.32C66.191 270.411 65.596 270.458 65 270.46ZM99.93 244.28C99.4748 244.279 99.0202 244.312 98.57 244.38L63.68 249.61C61.9062 249.874 60.2505 250.658 58.9226 251.863C57.5947 253.068 56.6544 254.64 56.2207 256.381C55.787 258.121 55.8795 259.95 56.4864 261.638C57.0933 263.325 58.1874 264.795 59.63 265.86C60.5828 266.575 61.6692 267.092 62.8251 267.381C63.9809 267.67 65.1829 267.724 66.36 267.54L101.26 262.32C103.636 261.957 105.771 260.667 107.198 258.733C108.625 256.798 109.226 254.377 108.87 252C108.55 249.845 107.464 247.877 105.811 246.457C104.158 245.037 102.049 244.261 99.87 244.27L99.93 244.28Z" fill="#0066FF"/>
<path d="M422.2 108.82C419.695 108.822 417.246 108.081 415.163 106.691C413.079 105.3 411.455 103.323 410.496 101.009C409.536 98.6957 409.285 96.1493 409.773 93.6926C410.261 91.2359 411.467 88.9792 413.238 87.208C415.009 85.4369 417.266 84.2309 419.723 83.7428C422.179 83.2546 424.726 83.5062 427.039 84.4656C429.353 85.425 431.33 87.0493 432.721 89.1327C434.111 91.2162 434.852 93.6652 434.85 96.17C434.845 99.5234 433.51 102.738 431.139 105.109C428.768 107.48 425.553 108.815 422.2 108.82ZM422.2 86.33C420.252 86.3221 418.346 86.8925 416.722 87.9689C415.099 89.0453 413.832 90.5793 413.081 92.3766C412.33 94.1739 412.129 96.1537 412.504 98.0651C412.879 99.9765 413.813 101.734 415.188 103.114C416.563 104.494 418.316 105.435 420.226 105.818C422.135 106.201 424.116 106.008 425.916 105.265C427.717 104.521 429.256 103.26 430.339 101.641C431.422 100.022 432 98.1179 432 96.17C431.997 93.568 430.965 91.0727 429.129 89.2291C427.293 87.3854 424.802 86.3432 422.2 86.33Z" fill="#0066FF"/>
<path d="M301.45 108.82C298.946 108.82 296.498 108.077 294.415 106.686C292.333 105.294 290.711 103.316 289.753 101.002C288.795 98.6886 288.545 96.1426 289.034 93.6865C289.523 91.2304 290.73 88.9746 292.502 87.2045C294.273 85.4344 296.53 84.2294 298.986 83.742C301.443 83.2547 303.989 83.5068 306.302 84.4666C308.615 85.4263 310.591 87.0505 311.981 89.1338C313.371 91.217 314.112 93.6657 314.11 96.17C314.105 99.5251 312.769 102.741 310.396 105.113C308.022 107.484 304.805 108.817 301.45 108.82ZM301.45 86.33C299.504 86.332 297.603 86.9108 295.986 87.9932C294.369 89.0756 293.109 90.6131 292.366 92.4113C291.623 94.2095 291.43 96.1877 291.81 98.0958C292.191 100.004 293.129 101.756 294.506 103.131C295.882 104.507 297.636 105.443 299.544 105.822C301.453 106.201 303.43 106.005 305.228 105.26C307.025 104.515 308.562 103.254 309.642 101.636C310.723 100.018 311.3 98.1157 311.3 96.17C311.297 93.5594 310.258 91.0565 308.412 89.2115C306.565 87.3664 304.061 86.33 301.45 86.33Z" fill="#0066FF"/>
<path d="M478.53 77.68C476.029 77.68 473.585 76.9388 471.505 75.5502C469.426 74.1615 467.804 72.1876 466.846 69.8779C465.887 67.5681 465.635 65.0262 466.121 62.5731C466.607 60.1201 467.808 57.866 469.575 56.0957C471.341 54.3254 473.592 53.1182 476.044 52.6267C478.496 52.1353 481.038 52.3815 483.35 53.3343C485.662 54.2872 487.64 55.9039 489.033 57.9802C490.427 60.0566 491.174 62.4994 491.18 65C491.183 66.6634 490.857 68.311 490.223 69.8486C489.589 71.3863 488.657 72.7838 487.483 73.9614C486.308 75.139 484.912 76.0735 483.376 76.7115C481.84 77.3496 480.193 77.6787 478.53 77.68ZM478.53 55.19C476.583 55.19 474.679 55.7679 473.06 56.8505C471.441 57.933 470.18 59.4716 469.436 61.2714C468.692 63.0711 468.499 65.0512 468.881 66.9608C469.263 68.8703 470.204 70.6236 471.583 71.9986C472.962 73.3735 474.718 74.3083 476.629 74.6846C478.539 75.0609 480.519 74.8617 482.316 74.1123C484.114 73.363 485.649 72.0971 486.726 70.475C487.804 68.8528 488.376 66.9474 488.37 65C488.359 62.3963 487.318 59.9027 485.474 58.0644C483.63 56.2261 481.134 55.1926 478.53 55.19Z" fill="#0066FF"/>
<path d="M319.1 33.84C316.598 33.838 314.154 33.0944 312.075 31.7032C309.996 30.312 308.376 28.3357 307.42 26.024C306.464 23.7124 306.215 21.1692 306.704 18.716C307.193 16.2628 308.399 14.0097 310.169 12.2416C311.938 10.4734 314.192 9.26964 316.646 8.78235C319.099 8.29506 321.642 8.54615 323.953 9.50389C326.264 10.4616 328.239 12.083 329.629 14.1631C331.018 16.2432 331.76 18.6885 331.76 21.19C331.757 24.5459 330.422 27.7635 328.048 30.1355C325.674 32.5076 322.456 33.84 319.1 33.84ZM319.1 11.35C317.154 11.35 315.251 11.9271 313.633 13.0083C312.015 14.0896 310.754 15.6264 310.009 17.4244C309.264 19.2224 309.069 21.2009 309.449 23.1097C309.829 25.0185 310.766 26.7718 312.142 28.1479C313.518 29.5241 315.271 30.4613 317.18 30.8409C319.089 31.2206 321.068 31.0258 322.866 30.281C324.664 29.5362 326.2 28.275 327.282 26.6568C328.363 25.0386 328.94 23.1362 328.94 21.19C328.937 18.5811 327.9 16.0798 326.055 14.235C324.21 12.3902 321.709 11.3527 319.1 11.35Z" fill="#0066FF"/>
<path d="M32.65 249.87C30.1452 249.872 27.6962 249.131 25.6127 247.741C23.5292 246.35 21.905 244.373 20.9456 242.059C19.9861 239.746 19.7346 237.199 20.2228 234.743C20.7109 232.286 21.9169 230.029 23.688 228.258C25.4591 226.487 27.7159 225.281 30.1726 224.793C32.6293 224.305 35.1757 224.556 37.4894 225.516C39.8031 226.475 41.7802 228.099 43.1706 230.183C44.5609 232.266 45.302 234.715 45.3 237.22C45.2947 240.573 43.9602 243.788 41.589 246.159C39.2179 248.53 36.0033 249.865 32.65 249.87ZM32.65 227.38C30.7038 227.38 28.8014 227.957 27.1832 229.038C25.565 230.12 24.3038 231.656 23.559 233.454C22.8142 235.252 22.6194 237.231 22.9991 239.14C23.3787 241.048 24.3159 242.802 25.6921 244.178C27.0682 245.554 28.8215 246.491 30.7303 246.871C32.6391 247.251 34.6176 247.056 36.4156 246.311C38.2136 245.566 39.7504 244.305 40.8316 242.687C41.9129 241.069 42.49 239.166 42.49 237.22C42.4873 234.611 41.4498 232.11 39.605 230.265C37.7602 228.42 35.2589 227.383 32.65 227.38Z" fill="#0066FF"/>
</g>
</svg>
