<svg width="161" height="173" viewBox="0 0 161 173" fill="none" xmlns="http://www.w3.org/2000/svg">
<path d="M54.46 20.87C54.6641 21.2923 54.7405 21.7649 54.68 22.23C54.6076 22.7135 54.3956 23.1653 54.07 23.53C53.6712 23.9628 53.1833 24.304 52.64 24.53C52.026 24.8564 51.3343 25.0086 50.64 24.97C50.2165 24.9294 49.8086 24.7889 49.45 24.56C49.1231 24.3698 48.859 24.0883 48.69 23.75C48.6504 23.6637 48.63 23.5699 48.63 23.475C48.63 23.3801 48.6504 23.2863 48.69 23.2C48.7211 23.1077 48.7709 23.0227 48.8363 22.9505C48.9017 22.8782 48.9812 22.8202 49.07 22.78C49.221 22.7204 49.389 22.7204 49.54 22.78C49.7247 22.8448 49.8923 22.9508 50.03 23.09C50.2047 23.2597 50.3995 23.4074 50.61 23.53C50.8046 23.6432 51.0248 23.7051 51.25 23.71C51.5461 23.7005 51.8364 23.6254 52.1 23.49C52.4876 23.3247 52.813 23.0412 53.03 22.68C53.1177 22.528 53.164 22.3555 53.164 22.18C53.164 22.0045 53.1177 21.832 53.03 21.68C52.9825 21.5681 52.9128 21.467 52.8251 21.3828C52.7375 21.2986 52.6337 21.233 52.52 21.19C52.2862 21.1067 52.0362 21.0793 51.79 21.11C51.51 21.11 51.16 21.21 50.72 21.3C50.2184 21.4189 49.7054 21.4826 49.19 21.49C48.787 21.4968 48.3885 21.404 48.03 21.22C47.669 21.0011 47.3812 20.6798 47.2031 20.297C47.0251 19.9142 46.9648 19.4871 47.03 19.07C47.1117 18.6248 47.324 18.2141 47.64 17.89C48.0337 17.5109 48.495 17.209 49 17C49.3924 16.8022 49.8147 16.6705 50.25 16.61C50.5843 16.5712 50.9227 16.5915 51.25 16.67C51.5192 16.745 51.7731 16.8669 52 17.03C52.1843 17.1691 52.3319 17.351 52.43 17.56C52.5003 17.7401 52.5003 17.94 52.43 18.12C52.4042 18.2159 52.3577 18.305 52.2938 18.381C52.2298 18.457 52.15 18.5181 52.06 18.56C51.9924 18.5986 51.9175 18.623 51.8402 18.6316C51.7628 18.6402 51.6844 18.6329 51.61 18.61C51.4377 18.5395 51.2762 18.4452 51.13 18.33C50.8999 18.1349 50.6304 17.9916 50.34 17.91C49.9947 17.8557 49.6413 17.9228 49.34 18.1C49.0053 18.2409 48.7223 18.4819 48.53 18.79C48.4574 18.9054 48.4141 19.0367 48.4036 19.1726C48.3932 19.3085 48.416 19.4449 48.47 19.57C48.5343 19.7053 48.6391 19.8171 48.77 19.89C48.9125 19.9637 49.0696 20.0047 49.23 20.01C49.3996 20.025 49.5703 20.025 49.74 20.01C49.9 20.01 50.17 19.94 50.54 19.86C50.9591 19.7664 51.3831 19.6963 51.81 19.65C52.1618 19.6042 52.5181 19.6042 52.87 19.65C53.1801 19.7054 53.4719 19.8359 53.72 20.03C54.0326 20.2442 54.287 20.5329 54.46 20.87Z" fill="#1F6AFF"/>
<path d="M65.8 12.5L69.8 16.65L68.9 11.9C68.8357 11.6561 68.8605 11.3973 68.97 11.17C69.0231 11.081 69.0957 11.005 69.1823 10.9479C69.2688 10.8908 69.3672 10.8539 69.47 10.84C69.5718 10.8162 69.6776 10.8156 69.7797 10.8381C69.8818 10.8606 69.9776 10.9057 70.06 10.97C70.2464 11.1415 70.3607 11.3774 70.38 11.63L71.51 17.91C71.63 18.61 71.41 19.01 70.83 19.12C70.694 19.1398 70.5559 19.1398 70.42 19.12C70.2925 19.0956 70.1705 19.0481 70.06 18.98C69.94 18.8987 69.8263 18.8084 69.72 18.71L69.39 18.38L65.52 14.27L66.36 19C66.4238 19.2459 66.3916 19.5069 66.27 19.73C66.2157 19.8181 66.1428 19.8933 66.0565 19.9503C65.9701 20.0073 65.8723 20.0448 65.77 20.06C65.6675 20.0839 65.5609 20.0837 65.4585 20.0594C65.3561 20.0351 65.2608 19.9874 65.18 19.92C64.9921 19.7526 64.8743 19.5205 64.85 19.27L63.75 13.11C63.7118 12.9017 63.7118 12.6883 63.75 12.48C63.7827 12.2984 63.8699 12.131 64 12C64.1392 11.8762 64.3079 11.7901 64.49 11.75C64.6187 11.7244 64.7512 11.7244 64.88 11.75C64.9922 11.7736 65.098 11.8214 65.19 11.89C65.2989 11.9659 65.3965 12.0568 65.48 12.16L65.8 12.5Z" fill="#1F6AFF"/>
<path d="M87.11 18L86.82 17L83.53 16.7L83.05 17.7C82.9296 17.9781 82.7751 18.2401 82.5899 18.48C82.5194 18.5485 82.4339 18.5996 82.3401 18.6291C82.2464 18.6586 82.147 18.6658 82.05 18.65C81.8443 18.6269 81.6549 18.5269 81.5199 18.37C81.4548 18.2986 81.4044 18.215 81.3718 18.1241C81.3392 18.0331 81.325 17.9365 81.33 17.84C81.341 17.7225 81.3714 17.6076 81.42 17.5C81.42 17.39 81.54 17.23 81.65 17.03L84.19 11.97L84.4499 11.44C84.5373 11.2639 84.6411 11.0965 84.76 10.94C84.8793 10.7953 85.0343 10.6841 85.2096 10.6175C85.3849 10.5509 85.5746 10.531 85.76 10.56C85.9592 10.5695 86.1524 10.6316 86.32 10.74C86.4606 10.8352 86.577 10.9619 86.66 11.11C86.7445 11.2549 86.8116 11.4093 86.86 11.57C86.86 11.73 86.97 11.94 87.04 12.21L88.68 17.62C88.7897 17.904 88.8473 18.2055 88.85 18.51C88.8381 18.6062 88.8073 18.699 88.7592 18.7832C88.7111 18.8673 88.6468 18.941 88.57 19C88.4887 19.068 88.3946 19.119 88.2932 19.15C88.1919 19.1809 88.0853 19.1911 87.98 19.18C87.8663 19.1757 87.7558 19.1412 87.66 19.08C87.5731 19.0299 87.4981 18.9617 87.44 18.88C87.3725 18.7563 87.3188 18.6255 87.28 18.49L87.11 18ZM84.11 15.47L86.53 15.69L85.61 12.24L84.11 15.47Z" fill="#1F6AFF"/>
<path d="M98.67 20.54L100.67 14.46C100.733 14.1971 100.894 13.9682 101.12 13.82C101.215 13.7653 101.32 13.7317 101.428 13.7213C101.537 13.711 101.647 13.7242 101.75 13.76C101.858 13.7915 101.958 13.8451 102.044 13.9174C102.13 13.9897 102.2 14.0791 102.25 14.18C102.35 14.4339 102.35 14.7161 102.25 14.97L100.25 21.05C100.182 21.3105 100.022 21.5377 99.8 21.69C99.7017 21.7446 99.5932 21.7781 99.4813 21.7884C99.3694 21.7987 99.2566 21.7856 99.15 21.75C99.0449 21.7178 98.9478 21.6637 98.8651 21.5913C98.7824 21.5189 98.7159 21.4299 98.67 21.33C98.5749 21.0753 98.5749 20.7948 98.67 20.54Z" fill="#1F6AFF"/>
<path d="M114.64 20.46L111.7 25.59L114.59 27.24C114.791 27.3403 114.948 27.5112 115.03 27.72C115.06 27.8056 115.07 27.8968 115.06 27.9869C115.049 28.077 115.019 28.1635 114.97 28.24C114.928 28.3214 114.869 28.3924 114.796 28.4478C114.724 28.5032 114.639 28.5415 114.55 28.56C114.328 28.5929 114.103 28.5392 113.92 28.41L110.48 26.41C110.228 26.2909 110.031 26.0798 109.93 25.82C109.903 25.6831 109.905 25.542 109.936 25.406C109.967 25.2699 110.027 25.1418 110.11 25.03L113.22 19.62C113.332 19.3761 113.532 19.1834 113.78 19.08C113.886 19.0463 113.998 19.036 114.109 19.0498C114.219 19.0636 114.325 19.1012 114.42 19.16C114.518 19.2129 114.604 19.2855 114.673 19.3733C114.742 19.461 114.792 19.562 114.82 19.67C114.844 19.807 114.84 19.9475 114.809 20.0831C114.778 20.2187 114.721 20.3468 114.64 20.46Z" fill="#1F6AFF"/>
<path d="M19.69 85.64C19.4872 85.6324 19.2916 85.5632 19.129 85.4418C18.9665 85.3203 18.8448 85.1523 18.78 84.96L12.08 61.26C12.0251 61.0178 12.0623 60.7639 12.1843 60.5477C12.3063 60.3314 12.5043 60.1683 12.74 60.09L47 50.4C47.1197 50.3648 47.2455 50.3546 47.3693 50.3701C47.4932 50.3856 47.6125 50.4264 47.72 50.49C47.8283 50.5475 47.9234 50.6271 47.9991 50.7235C48.0749 50.8199 48.1297 50.9311 48.16 51.05L54.86 74.75C54.895 74.8695 54.9059 74.9948 54.8921 75.1185C54.8783 75.2423 54.8401 75.3621 54.7796 75.4709C54.7192 75.5798 54.6377 75.6755 54.5399 75.7526C54.4421 75.8297 54.3299 75.8866 54.21 75.92L20 85.61C19.8985 85.634 19.7942 85.6441 19.69 85.64ZM14.16 61.64L20.34 83.52L52.8 74.36L46.61 52.48L14.16 61.64Z" fill="#1F6AFF"/>
<path d="M35.44 75.9C35.2673 75.8964 35.0985 75.8482 34.95 75.76L13.12 62.15C13.0146 62.0846 12.9232 61.9991 12.851 61.8982C12.7788 61.7974 12.7273 61.6833 12.6994 61.5624C12.6715 61.4416 12.6678 61.3164 12.6885 61.1942C12.7092 61.0719 12.7539 60.9549 12.82 60.85C12.9618 60.6487 13.1728 60.5069 13.4126 60.4515C13.6525 60.3962 13.9044 60.4312 14.12 60.55L35.06 73.61L46.21 51.27C46.2651 51.159 46.3416 51.06 46.435 50.9786C46.5285 50.8972 46.637 50.835 46.7545 50.7955C46.8719 50.756 46.996 50.7401 47.1196 50.7486C47.2433 50.7571 47.364 50.7898 47.475 50.845C47.5859 50.9001 47.685 50.9766 47.7664 51.07C47.8478 51.1635 47.91 51.272 47.9495 51.3895C47.9889 51.5069 48.0049 51.631 47.9964 51.7547C47.9879 51.8783 47.9551 51.999 47.9 52.11L36.29 75.38C36.2287 75.4965 36.1451 75.5997 36.0438 75.6838C35.9426 75.7679 35.8257 75.8312 35.7 75.87C35.6148 75.8904 35.5275 75.9005 35.44 75.9Z" fill="#1F6AFF"/>
<path d="M53.84 75.88C53.6484 75.8795 53.461 75.824 53.3 75.72L39.63 66.26C39.5203 66.1923 39.4254 66.1029 39.3513 65.9974C39.2772 65.8918 39.2254 65.7723 39.199 65.646C39.1726 65.5198 39.1722 65.3895 39.1978 65.2631C39.2234 65.1367 39.2744 65.0168 39.3478 64.9108C39.4212 64.8048 39.5155 64.7148 39.6248 64.6464C39.7341 64.5779 39.8562 64.5325 39.9836 64.5127C40.1111 64.493 40.2412 64.4994 40.3661 64.5316C40.491 64.5638 40.608 64.6211 40.71 64.7L54.38 74.16C54.5483 74.2731 54.6755 74.4377 54.7426 74.629C54.8097 74.8203 54.8132 75.0283 54.7524 75.2217C54.6917 75.4152 54.57 75.5838 54.4056 75.7025C54.2411 75.8211 54.0427 75.8834 53.84 75.88Z" fill="#1F6AFF"/>
<path d="M19.6599 85.55C19.5283 85.5475 19.3987 85.5169 19.2799 85.46C19.167 85.4101 19.065 85.3385 18.9797 85.2492C18.8945 85.1598 18.8276 85.0546 18.7831 84.9395C18.7385 84.8243 18.717 84.7015 18.7199 84.578C18.7228 84.4546 18.75 84.3329 18.7999 84.22L25.5999 69C25.6498 68.8871 25.7215 68.785 25.8108 68.6998C25.9001 68.6145 26.0054 68.5477 26.1205 68.5031C26.2357 68.4585 26.3585 68.4371 26.4819 68.44C26.6053 68.4429 26.727 68.4701 26.8399 68.52C27.0604 68.6321 27.2314 68.822 27.32 69.0528C27.4087 69.2837 27.4087 69.5392 27.3199 69.77L20.5299 85C20.4484 85.1619 20.3244 85.2987 20.1711 85.3955C20.0179 85.4924 19.8412 85.5458 19.6599 85.55Z" fill="#1F6AFF"/>
<path d="M71.42 82.6C71.2676 82.6005 71.1166 82.5707 70.9758 82.5123C70.8351 82.4539 70.7073 82.3682 70.6 82.26L63.75 75.45C63.5387 75.2721 63.3415 75.0782 63.16 74.87C62.3059 73.8808 61.8372 72.6168 61.84 71.31C61.8375 70.1977 62.1753 69.1113 62.8082 68.1966C63.4411 67.2819 64.3387 66.5828 65.3804 66.1931C66.4222 65.8034 67.5583 65.7418 68.6361 66.0165C69.7139 66.2912 70.6819 66.8892 71.41 67.73C72.1363 66.8815 73.1058 66.2767 74.1872 65.9974C75.2687 65.7181 76.4098 65.7778 77.4561 66.1684C78.5025 66.5591 79.4036 67.2617 80.0374 68.1813C80.6713 69.101 81.0073 70.1931 81 71.31C81.0051 71.9409 80.8967 72.5675 80.68 73.16C80.4173 73.9068 79.9979 74.5887 79.45 75.16L72.3 82.26C72.1846 82.3742 72.0469 82.4633 71.8954 82.5218C71.744 82.5803 71.5822 82.6069 71.42 82.6ZM67.3 67.74C66.3532 67.74 65.4451 68.1161 64.7756 68.7856C64.1061 69.4551 63.73 70.3632 63.73 71.31C63.724 72.1671 64.0337 72.9965 64.6 73.64C64.7223 73.7717 64.8561 73.8922 65 74V74.06L71.37 80.39L78 73.87C78.3714 73.4992 78.658 73.0523 78.84 72.56C78.9807 72.1722 79.0518 71.7626 79.05 71.35C79.0534 70.5311 78.7752 69.7359 78.262 69.0977C77.7488 68.4596 77.0318 68.0172 76.2312 67.8449C75.4306 67.6726 74.5951 67.7808 73.8648 68.1513C73.1345 68.5218 72.5537 69.1322 72.22 69.88C72.1463 70.0466 72.0258 70.1883 71.8731 70.2877C71.7205 70.3871 71.5422 70.44 71.36 70.44C71.1794 70.4331 71.0041 70.3773 70.8527 70.2787C70.7012 70.1801 70.5794 70.0423 70.5 69.88C70.2258 69.2555 69.779 68.7224 69.2121 68.3433C68.6452 67.9642 67.9818 67.7549 67.3 67.74Z" fill="#1F6AFF"/>
<path d="M50.5 116.51C49.131 116.48 47.7869 116.138 46.57 115.51C45.57 115.01 44.57 114.41 43.68 113.83C42.384 112.945 40.9918 112.211 39.53 111.64C38.3168 111.222 37.0106 111.153 35.76 111.44C35.6398 111.47 35.5149 111.476 35.3925 111.457C35.2701 111.439 35.1525 111.396 35.0466 111.332C34.9407 111.268 34.8485 111.183 34.7752 111.084C34.702 110.984 34.6493 110.87 34.62 110.75C34.5886 110.63 34.5813 110.506 34.5986 110.384C34.6159 110.261 34.6575 110.143 34.7208 110.037C34.7841 109.931 34.8679 109.839 34.9674 109.765C35.0668 109.692 35.1799 109.639 35.3 109.61C36.9045 109.234 38.5827 109.321 40.14 109.86C41.7428 110.472 43.2695 111.268 44.69 112.23C45.61 112.81 46.49 113.36 47.41 113.82C48.5 114.36 50.56 115.14 52.08 114.28C52.3889 114.086 52.643 113.815 52.818 113.495C52.993 113.175 53.0832 112.815 53.08 112.45C53.0953 112.195 53.2074 111.956 53.3933 111.781C53.5792 111.607 53.8249 111.51 54.08 111.51C54.3293 111.51 54.5684 111.609 54.7447 111.785C54.921 111.962 55.02 112.201 55.02 112.45C55.0138 113.15 54.8239 113.836 54.4694 114.44C54.115 115.043 53.6083 115.544 53 115.89C52.2329 116.306 51.3725 116.519 50.5 116.51Z" fill="#1F6AFF"/>
<path d="M76.17 106.75H75.89C74.985 106.677 74.1169 106.36 73.3787 105.831C72.6406 105.303 72.0602 104.583 71.7 103.75C71.6059 103.518 71.6078 103.258 71.7053 103.027C71.8028 102.797 71.9879 102.614 72.22 102.52C72.4521 102.426 72.712 102.428 72.9427 102.525C73.1734 102.623 73.3559 102.808 73.45 103.04C73.6765 103.541 74.032 103.972 74.4801 104.29C74.9281 104.608 75.4527 104.801 76 104.85H76.19C78.1 104.85 79.89 103.5 81.43 102.23H81.49C83.3 100.74 85.35 99.05 87.9 98.87C90.45 98.69 92.54 100 94.56 101.27C95.7909 102.124 97.138 102.798 98.56 103.27C100.66 103.83 102.87 103.36 105.22 102.86C106.03 102.69 106.86 102.51 107.69 102.38C110.78 101.89 113.69 102.45 115.53 103.87C115.627 103.947 115.708 104.042 115.769 104.15C115.829 104.258 115.868 104.377 115.882 104.5C115.896 104.623 115.886 104.748 115.853 104.867C115.819 104.986 115.762 105.098 115.685 105.195C115.608 105.292 115.513 105.373 115.405 105.434C115.297 105.494 115.178 105.533 115.055 105.547C114.932 105.561 114.807 105.551 114.688 105.518C114.569 105.484 114.457 105.427 114.36 105.35C112.7 104.05 109.98 103.93 107.99 104.24C107.21 104.37 106.4 104.54 105.61 104.71C103.15 105.23 100.61 105.77 98.07 105.1C96.4471 104.575 94.9105 103.814 93.51 102.84C91.66 101.68 89.91 100.58 87.99 100.72C86.07 100.86 84.31 102.28 82.64 103.65H82.58C80.81 105.18 78.69 106.75 76.17 106.75Z" fill="#1F6AFF"/>
<path d="M134.45 64.79C134.297 64.7858 134.148 64.7466 134.012 64.6756C133.877 64.6045 133.76 64.5034 133.67 64.38C133.02 63.44 127.33 55.04 127.33 51.44C127.33 49.5517 128.08 47.7407 129.415 46.4054C130.751 45.0701 132.562 44.32 134.45 44.32C136.338 44.32 138.149 45.0701 139.485 46.4054C140.82 47.7407 141.57 49.5517 141.57 51.44C141.57 55.04 135.88 63.44 135.23 64.38C135.14 64.5034 135.023 64.6045 134.888 64.6756C134.752 64.7466 134.603 64.7858 134.45 64.79ZM134.45 46.21C133.064 46.2126 131.735 46.7645 130.755 47.7448C129.774 48.725 129.223 50.0537 129.22 51.44C129.22 53.66 132.5 59.15 134.45 62.15C136.45 59.15 139.68 53.66 139.68 51.44C139.68 50.0529 139.129 48.7227 138.148 47.7418C137.167 46.761 135.837 46.21 134.45 46.21Z" fill="#1F6AFF"/>
<path d="M134.45 55C133.689 55 132.944 54.7742 132.311 54.3511C131.678 53.9281 131.184 53.3268 130.893 52.6233C130.602 51.9198 130.525 51.1457 130.674 50.3989C130.823 49.6521 131.189 48.9661 131.728 48.4276C132.266 47.8892 132.952 47.5225 133.699 47.374C134.446 47.2254 135.22 47.3017 135.923 47.5931C136.627 47.8844 137.228 48.3779 137.651 49.011C138.074 49.6442 138.3 50.3885 138.3 51.15C138.3 52.1711 137.894 53.1503 137.172 53.8723C136.45 54.5944 135.471 55 134.45 55ZM134.45 49.19C134.054 49.19 133.668 49.3073 133.339 49.5271C133.01 49.7468 132.754 50.0592 132.602 50.4246C132.451 50.7901 132.411 51.1922 132.488 51.5802C132.566 51.9681 132.756 52.3245 133.036 52.6042C133.315 52.8839 133.672 53.0744 134.06 53.1516C134.448 53.2287 134.85 53.1891 135.215 53.0377C135.581 52.8864 135.893 52.63 136.113 52.3011C136.333 51.9722 136.45 51.5855 136.45 51.19C136.445 50.663 136.232 50.1594 135.857 49.7887C135.483 49.4179 134.977 49.21 134.45 49.21V49.19Z" fill="#1F6AFF"/>
<path d="M23.94 111.61H23.83C23.0562 111.448 22.2995 111.214 21.57 110.91C21.4312 110.852 21.3208 110.742 21.2627 110.604C21.2047 110.465 21.2037 110.309 21.26 110.17C21.3196 110.033 21.4299 109.924 21.5677 109.866C21.7056 109.809 21.8605 109.806 22 109.86C22.6667 110.135 23.3559 110.353 24.06 110.51C24.1333 110.524 24.203 110.553 24.265 110.595C24.3271 110.636 24.3801 110.69 24.4211 110.752C24.4621 110.815 24.4902 110.885 24.5038 110.958C24.5173 111.032 24.516 111.107 24.5 111.18C24.467 111.303 24.3942 111.412 24.2929 111.49C24.1917 111.568 24.0676 111.61 23.94 111.61ZM19.76 109.91C19.6565 109.91 19.5555 109.878 19.47 109.82C18.9691 109.518 18.4881 109.184 18.03 108.82L17.57 108.45C17.5053 108.405 17.4507 108.346 17.4097 108.279C17.3687 108.211 17.3422 108.136 17.3319 108.057C17.3216 107.979 17.3277 107.9 17.3498 107.824C17.372 107.748 17.4096 107.677 17.4604 107.617C17.5112 107.556 17.574 107.507 17.6449 107.472C17.7158 107.437 17.7931 107.417 17.8721 107.414C17.951 107.41 18.0299 107.423 18.1035 107.452C18.1772 107.481 18.2441 107.524 18.3 107.58L18.74 107.94C19.1619 108.275 19.6026 108.585 20.06 108.87C20.1881 108.949 20.28 109.075 20.3156 109.221C20.3512 109.367 20.3276 109.521 20.25 109.65C20.1959 109.73 20.1229 109.796 20.0374 109.841C19.952 109.887 19.8567 109.91 19.76 109.91ZM16.29 107C16.1362 107 15.9887 106.939 15.88 106.83C15.3504 106.259 14.8497 105.661 14.38 105.04C14.3043 104.919 14.2769 104.774 14.3033 104.633C14.3297 104.493 14.4078 104.367 14.5223 104.282C14.6368 104.196 14.7793 104.157 14.9214 104.171C15.0636 104.186 15.1951 104.253 15.29 104.36C15.7275 104.952 16.2018 105.517 16.71 106.05C16.815 106.157 16.8739 106.3 16.8739 106.45C16.8739 106.6 16.815 106.743 16.71 106.85C16.6533 106.901 16.5871 106.941 16.515 106.967C16.4429 106.993 16.3664 107.004 16.29 107ZM13.58 103.38C13.4812 103.379 13.3844 103.353 13.2986 103.304C13.2129 103.255 13.1411 103.185 13.09 103.1C12.6899 102.42 12.3261 101.719 12 101C11.979 100.876 11.9994 100.749 12.0579 100.639C12.1165 100.528 12.2099 100.439 12.3238 100.387C12.4376 100.335 12.5656 100.321 12.6878 100.349C12.8101 100.376 12.9198 100.444 13 100.54C13.2959 101.225 13.6297 101.892 14 102.54C14.0767 102.67 14.0988 102.825 14.0613 102.971C14.0238 103.118 13.9298 103.243 13.8 103.32C13.732 103.358 13.6572 103.381 13.58 103.39V103.38ZM11.76 99.25C11.6392 99.2491 11.5218 99.2099 11.4248 99.138C11.3277 99.0661 11.256 98.9653 11.22 98.85C11.01 98.17 10.84 97.49 10.7 96.85C10.7 96.78 10.7 96.71 10.7 96.63C10.6868 96.5571 10.6882 96.4823 10.704 96.41C10.7197 96.3376 10.7496 96.2691 10.7918 96.2083C10.8772 96.0854 11.0078 96.0015 11.155 95.975C11.3022 95.9485 11.4539 95.9815 11.5767 96.0668C11.6995 96.1522 11.7835 96.2828 11.81 96.43C11.8156 96.4965 11.8156 96.5634 11.81 96.63C11.94 97.28 12.11 97.93 12.3 98.56C12.344 98.7032 12.3299 98.858 12.2606 98.9909C12.1914 99.1238 12.0726 99.224 11.93 99.27L11.76 99.25ZM11 94.8C10.8505 94.8 10.707 94.7413 10.6004 94.6366C10.4938 94.5319 10.4326 94.3894 10.43 94.24C10.4303 93.7679 10.467 93.2965 10.54 92.83L10.33 92.65C10.2231 92.5693 10.1481 92.4535 10.118 92.323C10.088 92.1924 10.1049 92.0555 10.1657 91.9362C10.2266 91.8169 10.3275 91.7228 10.4508 91.6704C10.5741 91.6181 10.7119 91.6109 10.84 91.65C10.9109 91.5547 11.0093 91.4835 11.1219 91.4459C11.2346 91.4083 11.3561 91.4063 11.47 91.44C11.5411 91.4606 11.6075 91.4952 11.6652 91.5416C11.7229 91.5881 11.7708 91.6455 11.8061 91.7107C11.8415 91.7758 11.8635 91.8472 11.8711 91.9209C11.8786 91.9946 11.8714 92.0691 11.85 92.14C11.8287 92.1986 11.812 92.2588 11.8 92.32C12.1149 92.5407 12.4496 92.7315 12.8 92.89C12.8963 92.9702 12.9635 93.0799 12.9912 93.2021C13.0188 93.3244 13.0054 93.4523 12.9531 93.5662C12.9007 93.6801 12.8122 93.7735 12.7014 93.832C12.5906 93.8906 12.4635 93.9109 12.34 93.89C12.0763 93.7707 11.8192 93.6372 11.57 93.49C11.57 93.71 11.57 93.94 11.57 94.18C11.5769 94.2589 11.5673 94.3385 11.5418 94.4135C11.5163 94.4885 11.4754 94.5574 11.4218 94.6158C11.3681 94.6741 11.3029 94.7206 11.2303 94.7523C11.1577 94.7841 11.0792 94.8003 11 94.8ZM14.95 94.51H14.78C14.6995 94.5207 14.6176 94.5141 14.5399 94.4907C14.4621 94.4672 14.3903 94.4273 14.3292 94.3738C14.2681 94.3203 14.2191 94.2544 14.1855 94.1804C14.152 94.1065 14.1346 94.0262 14.1346 93.945C14.1346 93.8638 14.152 93.7835 14.1855 93.7095C14.2191 93.6356 14.2681 93.5696 14.3292 93.5161C14.3903 93.4626 14.4621 93.4228 14.5399 93.3993C14.6176 93.3758 14.6995 93.3693 14.78 93.38H15.27C15.779 93.3439 16.2772 93.2151 16.74 93C16.8066 92.9666 16.8794 92.947 16.9538 92.9426C17.0282 92.9381 17.1027 92.9489 17.1729 92.9741C17.243 92.9994 17.3073 93.0386 17.3618 93.0895C17.4163 93.1403 17.4599 93.2018 17.49 93.27C17.522 93.3369 17.5404 93.4095 17.5441 93.4835C17.5479 93.5576 17.5369 93.6317 17.5117 93.7014C17.4866 93.7712 17.4479 93.8353 17.3978 93.89C17.3477 93.9447 17.2873 93.9889 17.22 94.02C16.639 94.2983 16.012 94.4678 15.37 94.52L14.95 94.51ZM18.77 92.67C18.6404 92.6686 18.5145 92.6266 18.41 92.55C18.2936 92.4543 18.2199 92.3164 18.2049 92.1665C18.1899 92.0166 18.2349 91.8668 18.33 91.75C18.6989 91.3305 18.914 90.798 18.94 90.24C18.9448 90.1834 18.9448 90.1266 18.94 90.07C18.9604 89.9422 19.0237 89.8251 19.1195 89.7381C19.2152 89.651 19.3378 89.5991 19.467 89.591C19.5962 89.5828 19.7243 89.6189 19.8302 89.6932C19.9362 89.7676 20.0137 89.8757 20.05 90C20.0548 90.0933 20.0548 90.1867 20.05 90.28C20.0307 91.0976 19.7265 91.8828 19.19 92.5C19.1349 92.5578 19.068 92.603 18.9937 92.6324C18.9195 92.6617 18.8397 92.6746 18.76 92.67H18.77ZM9.12998 91.14C9.04342 91.1386 8.95824 91.1181 8.88047 91.0801C8.8027 91.0421 8.73425 90.9874 8.67998 90.92C8.20158 90.292 7.77992 89.6227 7.41998 88.92C7.36979 88.8535 7.33478 88.7769 7.31739 88.6955C7.30001 88.614 7.30067 88.5298 7.31934 88.4486C7.33802 88.3675 7.37424 88.2914 7.42547 88.2258C7.4767 88.1601 7.54168 88.1065 7.61586 88.0687C7.69004 88.0309 7.7716 88.0097 7.85482 88.0068C7.93804 88.0039 8.02088 88.0192 8.09753 88.0518C8.17418 88.0843 8.24277 88.1332 8.29848 88.1951C8.35419 88.257 8.39566 88.3304 8.41998 88.41C8.74641 89.0508 9.13138 89.6601 9.56998 90.23C9.63551 90.3142 9.67607 90.4152 9.68706 90.5213C9.69805 90.6275 9.67901 90.7346 9.63212 90.8304C9.58523 90.9263 9.51236 91.0071 9.42182 91.0636C9.33128 91.1201 9.2267 91.15 9.11998 91.15L9.12998 91.14ZM12.3 90.55C12.1783 90.5475 12.0601 90.5092 11.96 90.44C11.9001 90.3948 11.8498 90.3382 11.8118 90.2735C11.7739 90.2087 11.7491 90.1371 11.7389 90.0628C11.7287 89.9885 11.7332 89.9129 11.7523 89.8403C11.7713 89.7678 11.8045 89.6997 11.85 89.64C12.3469 88.9899 12.9566 88.4344 13.65 88C13.7788 87.9224 13.933 87.8988 14.0791 87.9344C14.2252 87.97 14.3513 88.0618 14.43 88.19C14.4702 88.2528 14.4974 88.323 14.5101 88.3965C14.5229 88.4699 14.5208 88.5452 14.504 88.6178C14.4872 88.6905 14.4561 88.7591 14.4125 88.8195C14.3689 88.88 14.3136 88.9312 14.25 88.97C13.6681 89.3326 13.1621 89.8046 12.76 90.36C12.7031 90.425 12.632 90.4759 12.5522 90.5089C12.4724 90.5419 12.3861 90.5559 12.3 90.55ZM18.3 88.79C18.1981 88.7884 18.0983 88.7609 18.01 88.71C17.4448 88.39 16.7978 88.2439 16.15 88.29C16.0753 88.3008 15.9992 88.2968 15.9262 88.278C15.8531 88.2592 15.7845 88.2261 15.7243 88.1806C15.6641 88.1352 15.6135 88.0782 15.5755 88.013C15.5375 87.9478 15.5128 87.8757 15.5029 87.8009C15.493 87.7261 15.498 87.6501 15.5177 87.5773C15.5374 87.5044 15.5713 87.4362 15.6175 87.3766C15.6638 87.317 15.7214 87.2671 15.787 87.23C15.8527 87.1928 15.9251 87.169 16 87.16C16.8714 87.0982 17.7415 87.2966 18.5 87.73C18.6298 87.807 18.7238 87.9324 18.7613 88.0786C18.7988 88.2249 18.7767 88.38 18.7 88.51C18.6555 88.5894 18.5921 88.6566 18.5153 88.7055C18.4385 88.7543 18.3508 88.7834 18.26 88.79H18.3ZM7.07998 87.12C6.95841 87.1224 6.83948 87.0844 6.74178 87.0121C6.64408 86.9397 6.57311 86.837 6.53998 86.72C6.29658 85.973 6.11595 85.207 5.99998 84.43C5.98861 84.3571 5.99177 84.2827 6.00927 84.211C6.02677 84.1393 6.05826 84.0718 6.10193 84.0123C6.14561 83.9528 6.20061 83.9026 6.26377 83.8644C6.32693 83.8263 6.39701 83.801 6.46998 83.79C6.5442 83.7786 6.61993 83.7821 6.69282 83.8001C6.76571 83.8181 6.83432 83.8503 6.89472 83.8949C6.95512 83.9395 7.00611 83.9956 7.04477 84.06C7.08342 84.1243 7.10898 84.1957 7.11998 84.27C7.21868 84.9883 7.37587 85.6973 7.58998 86.39C7.634 86.5332 7.61986 86.688 7.55062 86.8209C7.48137 86.9538 7.36259 87.054 7.21998 87.1C7.17444 87.113 7.12734 87.1197 7.07998 87.12ZM6.41998 82.66C6.26961 82.6574 6.12611 82.5965 6.01977 82.4902C5.91343 82.3839 5.85255 82.2404 5.84998 82.09V81.94C5.86084 81.2112 5.91091 80.4834 5.99998 79.76C6.02606 79.6178 6.10521 79.4908 6.2214 79.4048C6.33759 79.3187 6.48213 79.28 6.62577 79.2966C6.7694 79.3131 6.90139 79.3836 6.99501 79.4938C7.08862 79.6039 7.13687 79.7456 7.12998 79.89C7.05263 80.5539 7.01256 81.2216 7.00998 81.89V82.03C7.0113 82.1048 6.99787 82.1792 6.97044 82.2489C6.94301 82.3186 6.90213 82.3821 6.85012 82.436C6.79812 82.4899 6.73602 82.5329 6.66736 82.5628C6.5987 82.5927 6.52483 82.6087 6.44998 82.61L6.41998 82.66ZM6.90998 78.16H6.78998C6.7169 78.1459 6.64745 78.117 6.58583 78.0753C6.52422 78.0335 6.47172 77.9797 6.43152 77.9171C6.39132 77.8544 6.36425 77.7843 6.35195 77.7109C6.33965 77.6375 6.34238 77.5623 6.35998 77.49C6.52998 76.75 6.73998 75.99 6.97998 75.25C7.03336 75.1141 7.13684 75.0039 7.26909 74.9421C7.40133 74.8803 7.55225 74.8715 7.69074 74.9177C7.82923 74.9639 7.94473 75.0614 8.01343 75.1902C8.08212 75.319 8.09879 75.4693 8.05998 75.61C7.82041 76.3074 7.62338 77.0187 7.46998 77.74C7.43512 77.8614 7.36156 77.9682 7.26048 78.044C7.1594 78.1198 7.03633 78.1605 6.90998 78.16ZM8.33998 73.86C8.26455 73.8795 8.18541 73.8795 8.10998 73.86C8.04128 73.8318 7.97901 73.7899 7.92692 73.737C7.87483 73.684 7.83401 73.6211 7.80691 73.5519C7.77981 73.4828 7.767 73.4089 7.76924 73.3346C7.77149 73.2604 7.78875 73.1874 7.81998 73.12C8.12998 72.41 8.47998 71.72 8.81998 71.04C8.89362 70.9095 9.01572 70.8132 9.15983 70.772C9.30395 70.7308 9.45848 70.7481 9.58998 70.82C9.65475 70.8563 9.71165 70.9052 9.75736 70.9638C9.80307 71.0223 9.83667 71.0894 9.85621 71.161C9.87576 71.2327 9.88085 71.3075 9.87119 71.3812C9.86154 71.4548 9.83733 71.5258 9.79998 71.59C9.43998 72.24 9.10998 72.9 8.79998 73.59C8.7518 73.6697 8.68451 73.7361 8.60419 73.7833C8.52386 73.8304 8.43306 73.8568 8.33998 73.86Z" fill="#1F6AFF"/>
<path d="M77.27 41.32H77.18C76.43 41.2 75.68 41.1 74.96 41.03C74.8114 41.01 74.6763 40.9332 74.583 40.8158C74.4898 40.6983 74.4457 40.5493 74.46 40.4C74.4675 40.3263 74.4895 40.2548 74.5248 40.1897C74.5601 40.1246 74.6079 40.0671 74.6656 40.0206C74.7233 39.9741 74.7896 39.9395 74.8607 39.9188C74.9318 39.8981 75.0064 39.8917 75.08 39.9C75.82 39.98 76.58 40.08 77.36 40.2C77.5082 40.2246 77.6407 40.3066 77.7287 40.4283C77.8167 40.5501 77.8531 40.7016 77.83 40.85C77.8048 40.9807 77.7353 41.0988 77.6334 41.1844C77.5314 41.2699 77.4031 41.3178 77.27 41.32ZM66 41.32C65.8567 41.3237 65.7174 41.2733 65.6096 41.1789C65.5018 41.0844 65.4336 40.9529 65.4185 40.8104C65.4033 40.6679 65.4424 40.5249 65.528 40.41C65.6135 40.295 65.7392 40.2165 65.88 40.19C66.62 40.04 67.39 39.92 68.17 39.84C68.2461 39.8315 68.3233 39.838 68.3969 39.8593C68.4705 39.8805 68.5392 39.9161 68.5991 39.9639C68.659 40.0118 68.7089 40.0709 68.746 40.138C68.783 40.2051 68.8065 40.2788 68.815 40.355C68.8235 40.4312 68.817 40.5083 68.7957 40.5819C68.7744 40.6556 68.7389 40.7243 68.6911 40.7842C68.6432 40.8441 68.5841 40.894 68.517 40.931C68.4499 40.968 68.3762 40.9915 68.3 41C67.55 41.08 66.82 41.2 66.11 41.34L66 41.32ZM72.76 40.84C72.01 40.84 71.27 40.84 70.53 40.84C70.3812 40.8402 70.2381 40.7832 70.1301 40.6809C70.0222 40.5785 69.9577 40.4386 69.95 40.29C69.9473 40.2151 69.9594 40.1405 69.9856 40.0703C70.0118 40.0001 70.0516 39.9358 70.1027 39.881C70.1538 39.8262 70.2151 39.782 70.2833 39.751C70.3515 39.7199 70.4251 39.7026 70.5 39.7C71.26 39.7 72.03 39.7 72.81 39.7C72.9469 39.7183 73.0725 39.7856 73.1635 39.8895C73.2545 39.9935 73.3046 40.1269 73.3046 40.265C73.3046 40.4031 73.2545 40.5366 73.1635 40.6405C73.0725 40.7444 72.9469 40.8118 72.81 40.83L72.76 40.84Z" fill="#1F6AFF"/>
<path d="M60.64 49.41C60.3305 49.4097 60.0232 49.3591 59.73 49.26C59.588 49.208 59.4719 49.1025 59.4066 48.9662C59.3412 48.8298 59.3316 48.6733 59.38 48.53C59.4046 48.4602 59.4428 48.3959 59.4924 48.3409C59.542 48.2859 59.6021 48.2414 59.669 48.2097C59.736 48.1781 59.8086 48.1601 59.8825 48.1567C59.9565 48.1533 60.0304 48.1646 60.1 48.19C60.2739 48.249 60.4563 48.2794 60.64 48.28C60.8015 48.284 60.9621 48.253 61.1105 48.1892C61.259 48.1253 61.3918 48.0301 61.5 47.91C61.5933 47.7895 61.7289 47.7091 61.8793 47.6849C62.0297 47.6608 62.1837 47.6948 62.31 47.78C62.4289 47.8678 62.5082 47.9992 62.5307 48.1453C62.5532 48.2914 62.517 48.4405 62.43 48.56L62.36 48.64C62.1487 48.8883 61.8846 49.0863 61.587 49.2195C61.2895 49.3527 60.9659 49.4178 60.64 49.41ZM58.47 47.67C58.3436 47.6694 58.221 47.6269 58.1214 47.5491C58.0219 47.4712 57.951 47.3625 57.92 47.24C57.8505 46.9485 57.817 46.6496 57.82 46.35C57.8212 45.8051 57.9264 45.2654 58.13 44.76C57.502 44.7981 56.8773 44.8783 56.26 45C56.1878 45.0171 56.1129 45.0198 56.0396 45.0079C55.9664 44.996 55.8961 44.9698 55.833 44.9308C55.7699 44.8918 55.715 44.8408 55.6716 44.7806C55.6282 44.7204 55.5971 44.6522 55.58 44.58C55.5629 44.5078 55.5602 44.4329 55.5721 44.3596C55.584 44.2864 55.6102 44.2162 55.6492 44.153C55.6882 44.0899 55.7392 44.035 55.7994 43.9916C55.8596 43.9482 55.9278 43.9171 56 43.9C56.7736 43.7383 57.56 43.6446 58.35 43.62C58.4244 43.6173 58.4985 43.6295 58.5681 43.6558C58.6377 43.6822 58.7014 43.7221 58.7554 43.7733C58.8094 43.8245 58.8527 43.886 58.8826 43.9541C58.9126 44.0222 58.9287 44.0956 58.93 44.17C58.9405 44.2363 58.9405 44.3037 58.93 44.37C59.0609 44.4331 59.1628 44.5437 59.2149 44.6794C59.2669 44.8151 59.2652 44.9656 59.21 45.1C59.0606 45.4994 58.9893 45.9237 59 46.35C58.9701 46.5656 58.9701 46.7844 59 47C59.0364 47.1458 59.0138 47.3002 58.937 47.4294C58.8602 47.5586 58.7355 47.6523 58.59 47.69L58.47 47.67ZM52.37 47.28C52.2706 47.283 52.1728 47.255 52.09 47.2C52.0252 47.1637 51.9683 47.1148 51.9226 47.0562C51.8769 46.9977 51.8433 46.9306 51.8238 46.859C51.8042 46.7873 51.7991 46.7125 51.8088 46.6388C51.8184 46.5652 51.8426 46.4942 51.88 46.43C52.3253 45.6902 52.9699 45.0907 53.74 44.7C53.8056 44.6645 53.8776 44.6424 53.9519 44.6347C54.0261 44.6271 54.1011 44.6342 54.1726 44.6555C54.2441 44.6769 54.3107 44.7121 54.3686 44.7592C54.4265 44.8063 54.4745 44.8643 54.51 44.93C54.5454 44.9957 54.5676 45.0677 54.5752 45.1419C54.5829 45.2161 54.5758 45.2911 54.5545 45.3626C54.5331 45.4341 54.4979 45.5007 54.4508 45.5586C54.4037 45.6165 54.3456 45.6645 54.28 45.7C53.6941 45.9916 53.2021 46.4421 52.86 47C52.8096 47.0852 52.738 47.1558 52.6521 47.2049C52.5662 47.254 52.4689 47.2799 52.37 47.28ZM62.19 46.63C62.0746 46.6292 61.9621 46.5935 61.8675 46.5274C61.7728 46.4613 61.7005 46.3681 61.66 46.26C61.5834 46.0451 61.4644 45.8479 61.31 45.68C61.0671 45.382 60.7546 45.1485 60.4 45C60.3064 44.9205 60.241 44.813 60.2135 44.6933C60.186 44.5737 60.1978 44.4484 60.2473 44.336C60.2967 44.2236 60.3811 44.1302 60.4879 44.0697C60.5947 44.0092 60.7182 43.9847 60.84 44C61.3449 44.2105 61.796 44.5317 62.16 44.94C62.4051 45.2108 62.5953 45.5267 62.72 45.87C62.7471 45.9395 62.7601 46.0138 62.7582 46.0884C62.7563 46.163 62.7394 46.2365 62.7087 46.3045C62.6779 46.3725 62.6339 46.4337 62.5792 46.4844C62.5244 46.5352 62.4601 46.5745 62.39 46.6C62.3253 46.6204 62.2578 46.6305 62.19 46.63ZM60.07 43.63C59.9559 43.6253 59.8459 43.5864 59.7542 43.5184C59.6625 43.4505 59.5933 43.3565 59.5556 43.2488C59.5179 43.141 59.5134 43.0245 59.5427 42.9141C59.572 42.8038 59.6338 42.7048 59.72 42.63C60.355 42.1365 61.0549 41.7327 61.8 41.43C61.8673 41.3811 61.9447 41.3479 62.0265 41.3327C62.1083 41.3175 62.1925 41.3207 62.2729 41.3421C62.3533 41.3635 62.4279 41.4025 62.4913 41.4564C62.5548 41.5103 62.6054 41.5776 62.6395 41.6535C62.6737 41.7293 62.6905 41.8119 62.6887 41.895C62.687 41.9782 62.6667 42.06 62.6294 42.1344C62.5921 42.2087 62.5387 42.2739 62.4731 42.325C62.4074 42.3761 62.3312 42.412 62.25 42.43C61.5993 42.7016 60.9873 43.058 60.43 43.49C60.3358 43.5934 60.2085 43.6606 60.07 43.68V43.63ZM64.16 41.73C64.0379 41.7297 63.919 41.6909 63.8202 41.6191C63.7215 41.5472 63.6479 41.4461 63.61 41.33C63.5664 41.1855 63.5819 41.0295 63.6531 40.8964C63.7244 40.7633 63.8455 40.6639 63.99 40.62C64.6 40.44 65.24 40.28 65.88 40.14C66.0271 40.1104 66.18 40.14 66.3054 40.2223C66.4308 40.3047 66.5187 40.4332 66.55 40.58C66.566 40.6529 66.5673 40.7284 66.5538 40.8018C66.5402 40.8753 66.5121 40.9453 66.4711 41.0077C66.4301 41.0701 66.3771 41.1237 66.315 41.1653C66.253 41.207 66.1833 41.2357 66.11 41.25C65.5 41.38 64.9 41.53 64.32 41.71L64.16 41.73Z" fill="#1F6AFF"/>
<path d="M94.78 61.32L94.28 62.24C93.8357 61.0479 93.2445 59.9158 92.52 58.87V59.25C88.3 55.09 81.39 53.47 78.52 52.94L87.29 36.53L89.36 37.64L90.25 36L87.34 34.44C87.1198 34.3235 86.8624 34.2991 86.6243 34.3722C86.3861 34.4454 86.1868 34.61 86.07 34.83L76.23 53.22C76.1564 53.355 76.1179 53.5063 76.1179 53.66C76.1179 53.8137 76.1564 53.965 76.23 54.1C76.2991 54.2375 76.4009 54.3558 76.5264 54.4447C76.6519 54.5337 76.7974 54.5904 76.95 54.61C77.07 54.61 89.57 56.22 93.18 63.16C93.2642 63.3101 93.3858 63.436 93.533 63.5253C93.6802 63.6147 93.8479 63.6645 94.02 63.67C94.116 63.6854 94.2139 63.6854 94.31 63.67C94.5113 63.5953 94.6833 63.4576 94.8004 63.2775C94.9174 63.0974 94.9734 62.8844 94.96 62.67L94.78 61.32Z" fill="#1F6AFF"/>
<path d="M94.28 63.19H94.22C94.04 63.1706 93.8686 63.1026 93.7242 62.9934C93.5798 62.8842 93.4677 62.7379 93.4 62.57C90.4 54.51 81.69 52.77 81.61 52.76C81.4681 52.7257 81.3361 52.6593 81.2241 52.5657C81.1121 52.4722 81.0231 52.3541 80.9642 52.2206C80.9052 52.0872 80.8777 51.9419 80.8839 51.7961C80.8901 51.6504 80.9298 51.508 81 51.38L90.1 34.38C90.1865 34.22 90.3176 34.0885 90.4773 34.0016C90.6371 33.9146 90.8186 33.8758 91 33.89C101 34.54 104.6 43.71 104.75 44.1C104.806 44.2223 104.836 44.3553 104.836 44.49C104.836 44.6247 104.806 44.7577 104.75 44.88L95.11 62.69C95.0309 62.8416 94.9116 62.9684 94.7652 63.0566C94.6188 63.1448 94.4509 63.191 94.28 63.19ZM83.18 51.19C85.68 51.93 91.33 54.19 94.36 60.07L102.77 44.33C102.04 42.7 98.77 36.56 91.42 35.76L83.18 51.19Z" fill="#1F6AFF"/>
<path d="M121.8 53.14C121.765 53.0217 121.706 52.9118 121.627 52.8172C121.548 52.7226 121.45 52.6453 121.34 52.59L118.44 51L117.55 52.67L119.62 53.78L110.86 70.18C108.8 68.05 103.6 63.18 97.8 62.01L98.15 61.85C96.8743 61.8249 95.6007 61.9627 94.36 62.26L94.86 61.33L93.69 61.89C93.4946 61.9911 93.3403 62.157 93.2536 62.3592C93.1669 62.5614 93.153 62.7874 93.2144 62.9987C93.2758 63.21 93.4086 63.3934 93.5902 63.5176C93.7717 63.6419 93.9908 63.6993 94.2099 63.68C101.98 62.82 110.26 72.32 110.35 72.42C110.438 72.5228 110.546 72.6055 110.669 72.6624C110.791 72.7194 110.925 72.7493 111.06 72.75H111.17C111.321 72.7293 111.465 72.6745 111.592 72.5895C111.718 72.5046 111.824 72.3919 111.9 72.26L121.73 53.84C121.787 53.7338 121.823 53.6172 121.835 53.497C121.847 53.3769 121.835 53.2555 121.8 53.14Z" fill="#1F6AFF"/>
<path d="M110 67.83C109.746 67.8264 109.503 67.7263 109.32 67.55C109.26 67.48 102.99 61.22 94.61 63.21C94.4272 63.2512 94.2366 63.2402 94.0598 63.1783C93.883 63.1164 93.7271 63.0061 93.61 62.86C93.5036 62.7179 93.4396 62.5485 93.4254 62.3716C93.4113 62.1946 93.4475 62.0172 93.53 61.86L103.06 44C103.127 43.8842 103.216 43.783 103.322 43.7022C103.429 43.6215 103.55 43.5629 103.68 43.53C104.09 43.44 113.68 41.32 119.82 49.28C119.926 49.4221 119.99 49.5915 120.005 49.7684C120.019 49.9454 119.982 50.1228 119.9 50.28L110.8 67.28C110.732 67.4122 110.632 67.5259 110.51 67.6112C110.388 67.6965 110.248 67.751 110.1 67.77L110 67.83ZM98 60.92C102.311 61.0212 106.458 62.5951 109.75 65.38L117.94 50C113.22 44.37 106.26 45.06 104.52 45.33L96.11 61C96.7379 60.9374 97.369 60.9107 98 60.92Z" fill="#1F6AFF"/>
<path d="M129 97.21C126.272 97.212 123.605 96.4049 121.336 94.8908C119.067 93.3768 117.298 91.2238 116.253 88.7041C115.207 86.1845 114.933 83.4115 115.464 80.7358C115.995 78.0602 117.307 75.6021 119.235 73.6725C121.164 71.743 123.621 70.4286 126.296 69.8957C128.971 69.3628 131.744 69.6353 134.265 70.6788C136.785 71.7222 138.94 73.4897 140.455 75.7577C141.971 78.0256 142.78 80.6922 142.78 83.42C142.777 87.0748 141.325 90.5793 138.742 93.1646C136.158 95.7498 132.655 97.2047 129 97.21ZM129 71.52C126.646 71.52 124.346 72.2179 122.389 73.5255C120.432 74.8331 118.906 76.6916 118.006 78.8661C117.105 81.0405 116.869 83.4332 117.329 85.7416C117.788 88.05 118.921 90.1703 120.585 91.8346C122.25 93.4988 124.37 94.6322 126.678 95.0914C128.987 95.5505 131.379 95.3149 133.554 94.4142C135.728 93.5135 137.587 91.9882 138.894 90.0313C140.202 88.0744 140.9 85.7736 140.9 83.42C140.895 80.2656 139.639 77.2418 137.409 75.0113C135.178 72.7807 132.154 71.5253 129 71.52Z" fill="#1F6AFF"/>
<path d="M124.02 82.42C124.539 82.42 124.96 81.9992 124.96 81.48C124.96 80.9609 124.539 80.54 124.02 80.54C123.501 80.54 123.08 80.9609 123.08 81.48C123.08 81.9992 123.501 82.42 124.02 82.42Z" fill="#1F6AFF"/>
<path d="M133.87 82.42C134.389 82.42 134.81 81.9992 134.81 81.48C134.81 80.9609 134.389 80.54 133.87 80.54C133.351 80.54 132.93 80.9609 132.93 81.48C132.93 81.9992 133.351 82.42 133.87 82.42Z" fill="#1F6AFF"/>
<path d="M128.74 89.84C127.153 89.8185 125.635 89.1885 124.5 88.08C124.395 87.9734 124.336 87.8297 124.336 87.68C124.336 87.5303 124.395 87.3866 124.5 87.28C124.608 87.1773 124.751 87.12 124.9 87.12C125.049 87.12 125.192 87.1773 125.3 87.28C125.43 87.42 128.3 90.39 132.49 87.22C132.609 87.1298 132.76 87.0908 132.908 87.1114C133.056 87.132 133.19 87.2107 133.28 87.33C133.37 87.4494 133.409 87.5996 133.389 87.7478C133.368 87.8959 133.289 88.0298 133.17 88.12C131.925 89.1681 130.366 89.773 128.74 89.84Z" fill="#1F6AFF"/>
<path d="M48.47 137.53L93.89 76L127.13 123.5C127.55 122.99 127.95 122.5 128.35 121.95L94.69 73.84C94.602 73.7192 94.4881 73.6197 94.3565 73.5487C94.225 73.4778 94.0793 73.4372 93.93 73.43C93.7815 73.4304 93.6352 73.4659 93.5031 73.5337C93.371 73.6015 93.2569 73.6996 93.17 73.82L46.87 136.54C47.39 136.88 47.93 137.21 48.47 137.53Z" fill="#1F6AFF"/>
<path d="M33.08 144.11L31.08 142.58C30.9636 142.507 30.8636 142.41 30.7862 142.297C30.7088 142.183 30.6556 142.055 30.63 141.92C30.6251 141.783 30.6484 141.647 30.6983 141.52C30.7482 141.393 30.8236 141.277 30.92 141.18L34.67 136.37C34.8214 136.134 35.0577 135.966 35.33 135.9C35.4666 135.895 35.6027 135.918 35.73 135.968C35.8573 136.018 35.973 136.094 36.07 136.19L38.15 137.8C38.4148 138.01 38.6654 138.237 38.9 138.48C39.0835 138.682 39.2291 138.916 39.33 139.17C39.4091 139.378 39.4531 139.598 39.46 139.82C39.4702 140.047 39.4398 140.274 39.37 140.49C39.2953 140.706 39.1873 140.908 39.05 141.09C38.8163 141.399 38.4931 141.628 38.1244 141.746C37.7557 141.864 37.3595 141.865 36.99 141.75C37.2841 142.108 37.4449 142.557 37.4449 143.02C37.4449 143.483 37.2841 143.932 36.99 144.29C36.7353 144.631 36.3882 144.891 35.99 145.04C35.5935 145.191 35.1592 145.212 34.75 145.1C34.4662 145.018 34.194 144.901 33.94 144.75C33.6426 144.551 33.3556 144.338 33.08 144.11ZM35.2 141.19L33.85 140.14L32.39 142L33.79 143.08C34.66 143.77 35.34 143.79 35.84 143.16C35.9616 143.028 36.0454 142.865 36.0823 142.689C36.1193 142.513 36.1081 142.33 36.05 142.16C35.8567 141.768 35.5636 141.433 35.2 141.19ZM35.86 137.56L34.58 139.21L35.76 140.14C36.007 140.344 36.2834 140.509 36.58 140.63C36.7987 140.715 37.0412 140.715 37.26 140.63C37.4297 140.564 37.5784 140.454 37.69 140.31C37.8058 140.192 37.8824 140.042 37.9093 139.879C37.9361 139.716 37.9119 139.549 37.84 139.4C37.6113 139.003 37.297 138.661 36.92 138.4L35.86 137.56Z" fill="#1F6AFF"/>
<path d="M48.4399 144C49.124 144.321 49.7132 144.814 50.15 145.43C50.5352 145.992 50.7378 146.659 50.7299 147.34C50.7098 148.104 50.5148 148.853 50.1599 149.53C49.905 150.054 49.5673 150.533 49.1599 150.95C48.7978 151.32 48.3617 151.61 47.88 151.8C47.4039 151.989 46.8903 152.064 46.38 152.02C45.8003 151.965 45.2367 151.798 44.72 151.53C44.1957 151.291 43.7235 150.951 43.33 150.53C42.9854 150.149 42.7323 149.694 42.5899 149.2C42.4572 148.698 42.4299 148.173 42.5099 147.66C42.5995 147.089 42.7784 146.535 43.04 146.02C43.2942 145.496 43.6319 145.016 44.04 144.6C44.4078 144.234 44.8469 143.949 45.33 143.76C45.8032 143.588 46.308 143.519 46.81 143.56C47.3753 143.608 47.9274 143.757 48.4399 144ZM48.6699 148.78C48.9197 148.313 49.0663 147.798 49.0999 147.27C49.1278 146.834 49.027 146.399 48.81 146.02C48.5658 145.646 48.2185 145.351 47.81 145.17C47.5276 145.035 47.2223 144.953 46.9099 144.93C46.6073 144.916 46.3058 144.975 46.0299 145.1C45.7157 145.238 45.4332 145.438 45.2 145.69C44.9133 145.985 44.6738 146.322 44.49 146.69C44.2958 147.067 44.1609 147.472 44.0899 147.89C44.0188 148.236 44.0188 148.594 44.0899 148.94C44.1616 149.239 44.2981 149.519 44.49 149.76C44.6923 149.995 44.9408 150.185 45.22 150.32C45.5837 150.507 45.992 150.59 46.4 150.56C46.838 150.517 47.2529 150.343 47.5899 150.06C48.0402 149.714 48.4089 149.274 48.6699 148.77V148.78Z" fill="#1F6AFF"/>
<path d="M60.46 148.69C61.1918 148.881 61.8607 149.26 62.4 149.79C62.8738 150.279 63.1907 150.899 63.31 151.57C63.4238 152.327 63.3622 153.1 63.13 153.83C62.9723 154.389 62.7259 154.919 62.4 155.4C62.1138 155.828 61.7386 156.19 61.3 156.46C60.8611 156.732 60.3643 156.896 59.85 156.94C59.2731 156.987 58.6925 156.922 58.14 156.75C57.5776 156.598 57.0508 156.336 56.59 155.98C56.1697 155.665 55.8275 155.258 55.59 154.79C55.364 154.322 55.2445 153.81 55.24 153.29C55.2282 152.123 55.5775 150.981 56.24 150.02C56.5394 149.607 56.9206 149.26 57.36 149C57.7976 148.745 58.2856 148.588 58.79 148.54C59.3511 148.49 59.9167 148.541 60.46 148.69ZM61.53 153.35C61.6918 152.847 61.7463 152.315 61.69 151.79C61.6462 151.353 61.468 150.941 61.18 150.61C60.8897 150.29 60.5155 150.058 60.1 149.94C59.7981 149.853 59.4815 149.829 59.17 149.87C58.8701 149.909 58.5829 150.015 58.33 150.18C58.0451 150.375 57.8034 150.627 57.62 150.92C57.1647 151.63 56.9219 152.456 56.92 153.3C56.9247 153.644 56.996 153.983 57.13 154.3C57.2582 154.583 57.4457 154.836 57.68 155.04C57.9224 155.236 58.201 155.382 58.5 155.47C58.8931 155.575 59.3068 155.575 59.7 155.47C60.1207 155.347 60.4962 155.104 60.78 154.77C61.1293 154.356 61.3851 153.872 61.53 153.35Z" fill="#1F6AFF"/>
<path d="M71.12 152L70.8 154.82L74.38 151.82C74.5157 151.699 74.6631 151.592 74.82 151.5C74.9561 151.433 75.1096 151.408 75.26 151.43C75.4705 151.448 75.6666 151.545 75.81 151.7C75.8718 151.773 75.9179 151.857 75.9454 151.948C75.973 152.039 75.9813 152.135 75.97 152.23C75.9456 152.367 75.893 152.497 75.8156 152.612C75.7381 152.728 75.6374 152.826 75.52 152.9L73.33 154.56L75.25 158.09C75.3625 158.296 75.4595 158.51 75.54 158.73C75.6074 158.891 75.6315 159.067 75.61 159.24C75.6004 159.328 75.5722 159.412 75.5274 159.488C75.4826 159.564 75.4221 159.629 75.35 159.68C75.2642 159.742 75.167 159.786 75.064 159.81C74.961 159.834 74.8543 159.837 74.75 159.82C74.5532 159.805 74.3653 159.732 74.21 159.61C74.0739 159.491 73.9648 159.344 73.89 159.18L73.68 158.71L72.08 155.53L70.6 156.66L70.41 158.33C70.4005 158.6 70.2898 158.857 70.1 159.05C70.0162 159.124 69.9172 159.178 69.81 159.209C69.7029 159.24 69.5902 159.247 69.48 159.23C69.3392 159.215 69.2048 159.163 69.09 159.08C68.9737 158.994 68.8808 158.881 68.82 158.75C68.7937 158.628 68.7937 158.502 68.82 158.38C68.8095 158.183 68.8095 157.987 68.82 157.79L69.49 151.79C69.4905 151.658 69.5173 151.527 69.5688 151.405C69.6203 151.283 69.6955 151.173 69.79 151.08C69.8721 151.007 69.9691 150.952 70.0743 150.919C70.1796 150.886 70.2906 150.876 70.4 150.89C70.5117 150.898 70.6204 150.929 70.7187 150.983C70.8171 151.036 70.9028 151.11 70.97 151.2C71.0469 151.317 71.0999 151.447 71.1256 151.585C71.1514 151.722 71.1495 151.863 71.12 152Z" fill="#1F6AFF"/>
<path d="M92.88 155.38L91.4 155.67L91.85 157.92C91.9179 158.182 91.8858 158.46 91.76 158.7C91.7004 158.793 91.6227 158.873 91.5314 158.935C91.4402 158.997 91.3373 159.041 91.229 159.062C91.1206 159.084 91.0091 159.083 90.901 159.06C90.7929 159.038 90.6905 158.993 90.6 158.93C90.399 158.756 90.2706 158.514 90.24 158.25L89 152.12C88.9588 151.986 88.9464 151.844 88.9636 151.704C88.9808 151.565 89.0273 151.43 89.1 151.31C89.2856 151.094 89.5469 150.958 89.83 150.93L91.9 150.52C92.3718 150.41 92.8559 150.363 93.34 150.38C93.6667 150.404 93.9842 150.5 94.27 150.66C94.5487 150.827 94.7849 151.056 94.96 151.33C95.1546 151.634 95.2872 151.974 95.35 152.33C95.443 152.671 95.4562 153.029 95.3886 153.376C95.3209 153.722 95.1743 154.049 94.96 154.33C94.4074 154.908 93.6731 155.279 92.88 155.38ZM91.77 151.8L90.68 152.02L91.16 154.45L92.25 154.24C92.5731 154.181 92.8862 154.077 93.18 153.93C93.3957 153.816 93.5705 153.638 93.68 153.42C93.7835 153.184 93.8046 152.92 93.74 152.67C93.6898 152.354 93.5174 152.07 93.26 151.88C92.7905 151.669 92.2593 151.641 91.77 151.8Z" fill="#1F6AFF"/>
<path d="M106.51 153.66L105.8 152.84L102.7 154V155.11C102.711 155.415 102.684 155.721 102.62 156.02C102.585 156.112 102.529 156.195 102.456 156.261C102.383 156.327 102.295 156.375 102.2 156.4C102.01 156.475 101.799 156.475 101.61 156.4C101.519 156.365 101.436 156.312 101.367 156.243C101.298 156.174 101.245 156.091 101.21 156C101.171 155.89 101.148 155.776 101.14 155.66C101.13 155.483 101.13 155.307 101.14 155.13L101.26 149.47C101.26 149.31 101.26 149.11 101.26 148.88C101.265 148.685 101.288 148.491 101.33 148.3C101.367 148.133 101.446 147.978 101.56 147.85C101.688 147.701 101.854 147.591 102.04 147.53C102.228 147.457 102.43 147.43 102.63 147.45C102.796 147.477 102.953 147.542 103.09 147.64C103.23 147.734 103.358 147.844 103.47 147.97L103.91 148.47L107.72 152.65C107.939 152.859 108.119 153.107 108.25 153.38C108.289 153.468 108.309 153.564 108.309 153.66C108.309 153.756 108.289 153.852 108.25 153.94C108.207 154.037 108.146 154.124 108.068 154.196C107.991 154.268 107.9 154.324 107.8 154.36C107.695 154.399 107.582 154.416 107.47 154.41C107.366 154.403 107.266 154.368 107.18 154.31C107.066 154.234 106.961 154.143 106.87 154.04L106.51 153.66ZM102.68 152.66L104.95 151.82L102.64 149.11L102.68 152.66Z" fill="#1F6AFF"/>
<path d="M112.18 144L115.12 149.12L118.01 147.46C118.193 147.341 118.414 147.295 118.63 147.33C118.721 147.349 118.806 147.388 118.88 147.443C118.954 147.498 119.016 147.569 119.06 147.65C119.109 147.726 119.139 147.813 119.15 147.903C119.16 147.993 119.15 148.084 119.12 148.17C119.034 148.374 118.878 148.541 118.68 148.64L115.24 150.64C115.127 150.721 114.999 150.778 114.863 150.809C114.727 150.84 114.587 150.844 114.45 150.82C114.19 150.719 113.979 150.522 113.86 150.27L110.76 144.85C110.604 144.629 110.54 144.357 110.58 144.09C110.6 143.98 110.646 143.877 110.714 143.788C110.782 143.7 110.869 143.628 110.97 143.58C111.064 143.52 111.17 143.48 111.28 143.465C111.391 143.449 111.503 143.458 111.61 143.49C111.854 143.588 112.056 143.768 112.18 144Z" fill="#1F6AFF"/>
<path d="M127.55 138.91C127.861 139.277 128.054 139.729 128.104 140.207C128.154 140.685 128.058 141.167 127.83 141.59C127.56 142.119 127.178 142.584 126.71 142.95C126.201 143.412 125.575 143.727 124.9 143.86C124.482 143.93 124.053 143.9 123.65 143.77C123.284 143.667 122.957 143.459 122.71 143.17C122.646 143.101 122.598 143.018 122.569 142.928C122.539 142.839 122.53 142.744 122.54 142.65C122.549 142.553 122.577 142.458 122.624 142.372C122.67 142.286 122.733 142.211 122.81 142.15C122.935 142.043 123.095 141.986 123.26 141.99C123.455 142.011 123.644 142.076 123.81 142.18C124.022 142.298 124.247 142.392 124.48 142.46C124.696 142.515 124.923 142.515 125.14 142.46C125.425 142.379 125.688 142.235 125.91 142.04C126.238 141.786 126.479 141.437 126.6 141.04C126.651 140.879 126.661 140.707 126.628 140.54C126.594 140.374 126.52 140.219 126.41 140.09C126.336 139.995 126.245 139.916 126.14 139.858C126.035 139.799 125.919 139.763 125.8 139.75C125.551 139.724 125.3 139.762 125.07 139.86C124.729 139.992 124.395 140.143 124.07 140.31C123.609 140.541 123.126 140.729 122.63 140.87C122.24 140.969 121.83 140.969 121.44 140.87C121.043 140.749 120.694 140.508 120.44 140.18C120.166 139.855 119.998 139.454 119.96 139.03C119.936 138.58 120.04 138.133 120.26 137.74C120.541 137.261 120.907 136.837 121.34 136.49C121.667 136.2 122.043 135.97 122.45 135.81C122.767 135.677 123.107 135.609 123.45 135.61C123.732 135.602 124.012 135.657 124.27 135.77C124.48 135.857 124.665 135.995 124.81 136.17C124.874 136.244 124.923 136.329 124.954 136.422C124.985 136.515 124.997 136.613 124.99 136.71C124.991 136.809 124.969 136.906 124.926 136.995C124.882 137.083 124.819 137.161 124.74 137.22C124.684 137.274 124.619 137.316 124.546 137.343C124.474 137.371 124.397 137.383 124.32 137.38C124.134 137.356 123.952 137.305 123.78 137.23C123.512 137.099 123.218 137.027 122.92 137.02C122.569 137.057 122.241 137.212 121.99 137.46C121.698 137.677 121.484 137.982 121.38 138.33C121.336 138.459 121.325 138.597 121.347 138.731C121.37 138.866 121.426 138.993 121.51 139.1C121.602 139.218 121.733 139.3 121.88 139.33C122.035 139.366 122.195 139.366 122.35 139.33C122.517 139.293 122.681 139.243 122.84 139.18L123.58 138.84C123.962 138.643 124.356 138.469 124.76 138.32C125.081 138.193 125.417 138.109 125.76 138.07C126.074 138.049 126.389 138.101 126.68 138.22C127.019 138.381 127.316 138.617 127.55 138.91Z" fill="#1F6AFF"/>
<path d="M132.81 133.66C132.723 133.661 132.637 133.641 132.559 133.603C132.481 133.565 132.413 133.509 132.36 133.44C132.293 133.357 132.251 133.256 132.24 133.149C132.23 133.042 132.25 132.935 132.3 132.84L138.43 120.56C138.476 120.456 138.555 120.37 138.654 120.314C138.753 120.258 138.867 120.236 138.98 120.25C139.091 120.259 139.197 120.301 139.285 120.37C139.372 120.44 139.436 120.534 139.47 120.64L141.35 126.53L146.71 129.73C146.808 129.789 146.886 129.875 146.934 129.979C146.982 130.082 146.998 130.197 146.98 130.31C146.963 130.423 146.912 130.528 146.833 130.61C146.754 130.693 146.652 130.748 146.54 130.77L132.92 133.65L132.81 133.66ZM138.81 122.31L133.81 132.31L144.81 129.97L140.51 127.41C140.39 127.338 140.301 127.224 140.26 127.09L138.81 122.31Z" fill="#1F6AFF"/>
<path d="M136.68 130.86C136.595 130.859 136.511 130.838 136.435 130.8C136.359 130.762 136.292 130.707 136.24 130.64C136.149 130.523 136.108 130.374 136.124 130.227C136.141 130.079 136.215 129.944 136.33 129.85L140.54 126.49C140.659 126.399 140.809 126.357 140.958 126.374C141.107 126.39 141.244 126.464 141.34 126.58C141.434 126.698 141.477 126.849 141.46 126.999C141.443 127.149 141.368 127.286 141.25 127.38L137 130.73C136.91 130.807 136.798 130.852 136.68 130.86Z" fill="#1F6AFF"/>
<path d="M79.72 147.07C69.0625 147.065 58.5864 144.312 49.3027 139.078C40.019 133.844 32.2412 126.306 26.72 117.19C26.6543 117.084 26.6102 116.965 26.5903 116.842C26.5703 116.719 26.5749 116.592 26.6036 116.471C26.6324 116.349 26.6849 116.234 26.758 116.133C26.8312 116.032 26.9236 115.946 27.03 115.88C27.1363 115.814 27.2546 115.77 27.378 115.75C27.5014 115.73 27.6275 115.735 27.7492 115.764C27.8708 115.792 27.9856 115.845 28.087 115.918C28.1883 115.991 28.2743 116.084 28.34 116.19C33.6815 125.042 41.2197 132.363 50.2236 137.444C59.2274 142.525 69.3914 145.193 79.73 145.19C92.771 145.227 105.464 140.984 115.86 133.11C126.03 125.419 133.512 114.714 137.24 102.52C137.312 102.281 137.475 102.081 137.695 101.963C137.914 101.845 138.171 101.818 138.41 101.89C138.644 101.972 138.839 102.139 138.957 102.357C139.076 102.575 139.109 102.829 139.05 103.07C135.215 115.638 127.517 126.677 117.05 134.62C106.309 142.752 93.192 147.126 79.72 147.07Z" fill="#1F6AFF"/>
<path d="M32.33 47.65C32.1125 47.6471 31.9018 47.5734 31.73 47.44C31.5481 47.2734 31.4342 47.0454 31.4102 46.7999C31.3862 46.5544 31.4538 46.3087 31.6 46.11C37.2158 39.1951 44.2559 33.5715 52.2407 29.6222C60.2255 25.6729 68.9676 23.4907 77.8717 23.224C86.7758 22.9574 95.6328 24.6126 103.84 28.077C112.046 31.5414 119.41 36.7335 125.43 43.3C125.57 43.4894 125.634 43.7239 125.611 43.958C125.587 44.1921 125.478 44.4092 125.304 44.5673C125.129 44.7254 124.903 44.8132 124.667 44.8137C124.432 44.8142 124.205 44.7274 124.03 44.57C118.197 38.1928 111.056 33.1494 103.096 29.7841C95.1355 26.4188 86.5427 24.8108 77.904 25.07C69.2654 25.3291 60.7843 27.4493 53.04 31.2858C45.2956 35.1222 38.4703 40.5846 33.03 47.3C32.9457 47.4057 32.8395 47.4918 32.7186 47.5522C32.5977 47.6127 32.4651 47.6461 32.33 47.65Z" fill="#1F6AFF"/>
<path d="M35.15 23.79C35.0572 23.7897 34.9659 23.7668 34.884 23.7232C34.8021 23.6797 34.732 23.6168 34.68 23.54L33.21 21.29C33.13 21.1621 33.103 21.008 33.1347 20.8605C33.1665 20.713 33.2544 20.5837 33.38 20.5C33.5063 20.4206 33.6588 20.3939 33.8047 20.4256C33.9505 20.4574 34.0781 20.5452 34.16 20.67L35.63 22.92C35.6832 23.006 35.7126 23.1046 35.7151 23.2057C35.7177 23.3068 35.6933 23.4068 35.6444 23.4954C35.5955 23.5839 35.524 23.6579 35.4371 23.7097C35.3502 23.7614 35.2511 23.7892 35.15 23.79Z" fill="#1F6AFF"/>
<path d="M33.32 21.1C33.6513 21.1 33.92 20.8314 33.92 20.5C33.92 20.1686 33.6513 19.9 33.32 19.9C32.9886 19.9 32.72 20.1686 32.72 20.5C32.72 20.8314 32.9886 21.1 33.32 21.1Z" fill="#1F6AFF"/>
<path d="M33.32 21.67C33.1183 21.6665 32.9209 21.6108 32.747 21.5084C32.5732 21.406 32.4287 21.2605 32.3277 21.0858C32.2268 20.9111 32.1727 20.7133 32.1707 20.5116C32.1687 20.3098 32.219 20.111 32.3166 19.9344C32.4141 19.7578 32.5557 19.6094 32.7275 19.5037C32.8994 19.398 33.0956 19.3385 33.2972 19.331C33.4989 19.3235 33.699 19.3683 33.8782 19.461C34.0574 19.5537 34.2096 19.6911 34.32 19.86C34.4891 20.1182 34.5504 20.4325 34.4906 20.7353C34.4307 21.0382 34.2546 21.3055 34 21.48C33.7986 21.6125 33.5609 21.6789 33.32 21.67ZM33.32 20.46C33.32 20.46 33.32 20.46 33.32 20.51C33.32 20.56 33.32 20.51 33.37 20.51C33.42 20.51 33.37 20.51 33.37 20.46H33.32Z" fill="#1F6AFF"/>
<path d="M30.63 36.32C30.825 35.9945 31.0387 35.6807 31.27 35.38C30.985 35.1046 30.7302 34.7996 30.51 34.47C29.8336 33.4485 29.5725 32.2074 29.78 31C29.8687 30.4327 30.0756 29.8903 30.3873 29.4081C30.6989 28.9258 31.1084 28.5144 31.5892 28.2005C32.07 27.8865 32.6114 27.6771 33.1783 27.5857C33.7452 27.4943 34.3249 27.5231 34.88 27.67C35.2257 27.7614 35.5609 27.8888 35.88 28.05L34.88 26.52C33.5269 26.2402 32.118 26.5061 30.96 27.26C30.3527 27.66 29.8342 28.1807 29.4368 28.7897C29.0394 29.3988 28.7716 30.083 28.65 30.8C28.4843 31.8128 28.5812 32.8512 28.9313 33.8159C29.2815 34.7805 29.8732 35.6393 30.65 36.31L30.63 36.32Z" fill="#1F6AFF"/>
<path d="M32.16 37.11C32.2447 37.0791 32.3203 37.0276 32.38 36.96L32.16 37.11Z" fill="#1F6AFF"/>
<path d="M30.6499 38.52C30.4368 38.5341 30.2246 38.4796 30.0447 38.3645C29.8647 38.2493 29.7264 38.0795 29.6499 37.88C29.1799 36.51 32.1999 33.16 33.3799 32.54C34.4879 31.7092 35.4451 30.6944 36.2099 29.54L33.9199 26.04C33.6246 25.5235 33.5371 24.9138 33.6753 24.3351C33.8135 23.7563 34.1669 23.252 34.6638 22.9246C35.1606 22.5972 35.7635 22.4713 36.3498 22.5727C36.9361 22.674 37.4618 22.9948 37.8199 23.47L40.5299 27.86C40.8134 28.2417 41.017 28.6767 41.1287 29.1388C41.2404 29.601 41.2578 30.0809 41.1799 30.55C40.9593 31.4659 40.4162 32.2718 39.6499 32.82L31.1899 38.34C31.1228 38.3813 31.048 38.4086 30.9699 38.42L30.6499 38.52ZM35.8799 23.52C35.6626 23.5286 35.4513 23.5943 35.2673 23.7104C35.0833 23.8265 34.9331 23.989 34.8318 24.1815C34.7305 24.374 34.6816 24.5898 34.69 24.8072C34.6985 25.0246 34.764 25.2359 34.8799 25.42L37.3599 29.23C37.4231 29.3229 37.4569 29.4326 37.4569 29.545C37.4569 29.6573 37.4231 29.7671 37.3599 29.86C37.2799 29.98 35.3599 32.7 33.9099 33.49C32.5651 34.4869 31.481 35.794 30.7499 37.3L38.9999 31.94C39.2743 31.7666 39.5088 31.5371 39.6881 31.2667C39.8675 30.9962 39.9875 30.6908 40.0404 30.3706C40.0933 30.0504 40.0778 29.7227 39.995 29.4089C39.9122 29.0951 39.7639 28.8024 39.5599 28.55L36.8499 24.15C36.7403 23.9885 36.5966 23.8529 36.4291 23.7527C36.2615 23.6525 36.0741 23.5902 35.8799 23.57V23.52Z" fill="#1F6AFF"/>
<path d="M47.44 136.91L47.66 137.04L47.75 136.92L47.44 136.91Z" fill="#1F6AFF"/>
<path d="M29.45 119.69L44.56 100L59.09 121.56L60.28 120L45.39 97.86C45.303 97.7382 45.1882 97.639 45.0552 97.5705C44.9221 97.502 44.7746 97.4662 44.625 97.4662C44.4753 97.4662 44.3278 97.502 44.1948 97.5705C44.0617 97.639 43.9469 97.7382 43.86 97.86L28.35 118C28.71 118.58 29.08 119.14 29.45 119.69Z" fill="#1F6AFF"/>
</svg>
