<svg width="65" height="68" viewBox="0 0 65 68" fill="none" xmlns="http://www.w3.org/2000/svg">
<path d="M50.0629 11.2675L47.2229 11.2784L47.2608 21.1584L50.1008 21.1475L50.0629 11.2675Z" fill="#EF6658"/>
<path d="M45.89 11.6399C45.5504 11.3026 45.281 10.9014 45.0971 10.4595C44.9132 10.0175 44.8185 9.5436 44.8185 9.06495C44.8185 8.58629 44.9132 8.11237 45.0971 7.67044C45.281 7.22852 45.5504 6.82732 45.89 6.48995C46.2237 6.14629 46.6233 5.8735 47.0649 5.68793C47.5065 5.50235 47.981 5.40781 48.46 5.40995C49.416 5.41244 50.3328 5.7899 51.0135 6.46121C51.6942 7.13252 52.0843 8.04407 52.1 8.99995C52.1005 9.48794 52.0035 9.97111 51.8146 10.4211C51.6257 10.871 51.3487 11.2786 51 11.6199C50.6637 11.9595 50.2634 12.229 49.8223 12.4126C49.3811 12.5963 48.9078 12.6906 48.43 12.6899C47.9584 12.6903 47.4913 12.5978 47.0555 12.4176C46.6197 12.2375 46.2236 11.9732 45.89 11.6399ZM49.26 9.04995C49.2573 8.83686 49.1708 8.63339 49.0192 8.48364C48.8676 8.3339 48.6631 8.24993 48.45 8.24995C48.2385 8.25561 48.0362 8.33726 47.88 8.47995C47.7308 8.63601 47.6483 8.84406 47.65 9.05995C47.6496 9.16383 47.6697 9.26676 47.7092 9.36285C47.7487 9.45895 47.8067 9.54631 47.88 9.61995C48.0325 9.76953 48.2364 9.85535 48.45 9.85995C48.6575 9.85434 48.8547 9.76828 49 9.61995C49.1513 9.46856 49.2374 9.26399 49.24 9.04995H49.26Z" fill="#EF6658"/>
<path d="M9.04998 52.08L11.79 51.36C11.3905 49.8115 11.1856 48.2192 11.18 46.62C11.18 36.82 18.55 28.82 27.69 28.79H27.75C30.1367 28.8082 32.4897 29.3558 34.6392 30.3933C36.7887 31.4309 38.6811 32.9325 40.18 34.79L42.37 33C40.6001 30.8272 38.3715 29.0729 35.8439 27.8627C33.3163 26.6525 30.5523 26.0164 27.75 26H27.68C17 26 8.29998 35.27 8.33998 46.63C8.34874 48.4691 8.58726 50.3 9.04998 52.08Z" fill="#EF6658"/>
<path d="M5.55999 59.4099C2.79999 58.2299 2.76999 56.5299 2.99999 55.6199C4.17999 50.9399 20.06 46.6699 24.5 47.0599C28.94 47.4499 37.2 44.3999 39.89 43.3499V33.8899V27.4499C39.97 24.7199 41.73 19.5499 47.8 19.5199C53.8 19.5199 55.63 24.6599 55.73 27.5199L55.3 46.5199C55.38 50.3599 54.3 53.4599 52.12 55.7299C49.7412 58.0159 46.6066 59.3501 43.31 59.4799L5.84999 59.6299L5.55999 59.4099ZM47.75 22.4099C43.01 22.4099 42.69 27.0599 42.67 27.5299L42.74 45.2999L41.86 45.6599C41.39 45.8599 30.31 50.4699 24.25 49.9399C19.11 49.5099 6.16999 54.3399 5.72999 56.2499C5.91648 56.4648 6.15364 56.6298 6.41999 56.7299L43.27 56.5899C45.8049 56.4728 48.2139 55.451 50.06 53.7099C51.71 51.9999 52.51 49.5899 52.44 46.4699L52.87 27.5499C52.87 27.0199 52.5 22.4099 47.78 22.4099H47.75Z" fill="#EF6658"/>
</svg>
